<?xml version="1.0" encoding="iso-8859-1"?>
<!-- Generator: Adobe Illustrator 19.0.0, SVG Export Plug-In . SVG Version: 6.00 Build 0)  -->
<svg version="1.1" id="Capa_1" xmlns="http://www.w3.org/2000/svg" xmlns:xlink="http://www.w3.org/1999/xlink" x="0px" y="0px"
	 viewBox="0 0 511.201 511.201" style="enable-background:new 0 0 511.201 511.201;" xml:space="preserve">
<g>
	<g>
		<path d="M77.925,485.586c2.268,0.013,4.448-0.877,6.059-2.475c18.715-17.337,43.541-26.543,69.035-25.6
			c9.894-0.016,19.762,1.014,29.44,3.072c10.169,8.198,24.879,7.426,34.133-1.792l12.032-12.117l276.907-320
			c8.198-10.169,7.426-24.879-1.792-34.133l-79.616-81.152c-9.491-9.528-24.737-10.087-34.901-1.28L72.293,289.575l-12.544,12.459
			c-4.771,4.81-7.441,11.316-7.424,18.091c-0.1,6.019,1.924,11.88,5.717,16.555c2.304,10.496,12.117,64-22.357,98.475
			c-2.227,2.46-2.826,5.988-1.536,9.045L2.49,475.687c-3.328,3.337-3.319,8.74,0.018,12.068c0.644,0.642,1.387,1.178,2.201,1.585
			l34.133,17.067c1.189,0.609,2.504,0.931,3.84,0.939h273.067c4.713,0,8.533-3.82,8.533-8.533s-3.82-8.533-8.533-8.533H67.002
			l7.083-5.717C75.267,485.2,76.582,485.551,77.925,485.586z M400.4,22.994c3.405-2.895,8.468-2.672,11.605,0.512l80.384,80.384
			c3.132,3.07,3.427,8.014,0.683,11.435L221.882,428.242L90.384,296.402L400.4,22.994z M41.573,488.743l-18.603-9.301l22.613-22.699
			L61.541,472.7L41.573,488.743z M54.97,441.98l-1.451-1.451c37.888-44.971,21.333-107.776,20.565-110.507v0.171
			c-0.391-1.383-1.125-2.645-2.133-3.669c-1.65-1.617-2.573-3.834-2.56-6.144c-0.013-2.268,0.877-4.448,2.475-6.059l5.973-6.059
			l132.864,132.523l-6.059,6.059c-3.319,3.346-8.722,3.368-12.068,0.049c-0.017-0.016-0.033-0.033-0.049-0.049
			c-1.062-1.065-2.387-1.831-3.84-2.219c-11.71-2.8-23.715-4.175-35.755-4.096c-27.091-0.889-53.617,7.882-74.837,24.747
			L54.97,441.98z"/>
	</g>
</g>
<g>
</g>
<g>
</g>
<g>
</g>
<g>
</g>
<g>
</g>
<g>
</g>
<g>
</g>
<g>
</g>
<g>
</g>
<g>
</g>
<g>
</g>
<g>
</g>
<g>
</g>
<g>
</g>
<g>
</g>
</svg>
