<svg xmlns="http://www.w3.org/2000/svg" viewBox="0 0 177 20"><title>0</title><g id="powered-by-wolfram-cloud-outline"><g id="cloud-spikey"><path id="cloud-2" d="M27.34285,10.33224a3.67067,3.67067,0,0,0,.17209-1.11318,3.42022,3.42022,0,0,0-3.31778-3.51325,3.04706,3.04706,0,0,0-.5408.04867A7.18417,7.18417,0,0,0,16.76552,0a6.95531,6.95531,0,0,0-5.6958,3.03912,5.87136,5.87136,0,0,0-1.94245-.33224A6.34043,6.34043,0,0,0,2.97575,9.21906a6.94871,6.94871,0,0,0,.08506,1.075A5.03977,5.03977,0,0,0,.00234,15.01157,4.84746,4.84746,0,0,0,4.5658,20H25.36391a4.92447,4.92447,0,0,0,4.63843-5.06882A5.18631,5.18631,0,0,0,27.34285,10.33224Z" fill="#d10"/><path id="spikey" d="M20.47788,11.50064,22.50494,9.2264l-2.97651-.64906.30291-3.03141L17.042,6.77049,15.5048,4.13983,13.96841,6.77021,11.17934,5.54494,11.482,8.5765l-2.97679.64821,2.0265,2.2748L8.50494,13.7736l2.97622.64906-.30293,3.03128,2.78933-1.22428,1.53724,2.63052,1.53639-2.63024,2.789,1.22513-.30237-3.03142,2.97679-.64835Zm.53288,1.46743-1.35359-.463-.9234-1.2,1.18864.44155Zm-4.37654,2.8122L15.79389,17.219V15.7287l.87258-1.273ZM14.66377,8.34394l-1.43643-.51072L12.39617,6.711l1.50879.66275Zm2.44116-.9696L18.61357,6.712l-.83143,1.12125-1.436.51061Zm1.82993,1.32617-.729,1.03389.04284-1.55922.854-1.15166ZM15.5048,15.12789l-1.12-1.634,1.12-1.51966,1.12,1.51966Zm-2.10209-4.65413-.05456-1.98393L15.2157,9.154v1.93061ZM15.79389,9.154l1.86755-.66412-.05456,1.98394-1.813.6108Zm-3.7183-.45387L11.908,7.02352,12.76092,8.175l.04284,1.55876Zm2.96147,2.93451-1.11933,1.51878-1.9027-.561,1.20749-1.56914Zm-.6943,2.82052.87294,1.27358v1.49055l-.84117-1.43938Zm1.62977-2.82052,1.81455-.61137,1.20749,1.56914-1.9027.561Zm5.44208-2.05417-1.4085,1.58036-1.663-.61779.99772-1.41478ZM16.57374,7.11531,15.505,8.48072,14.43678,7.11478l1.068-1.82873ZM9.59554,9.579l2.07407-.45154.99709,1.41538-1.66294.61691Zm1.49164,2.16642,1.18928-.44116-.924,1.20071-1.3545.46248Zm-.96236,1.78967,1.41026-.4815,1.50583.44395-1.26021.39864Zm1.93852.87828,1.68708-.53369.04312,1.79485-1.94166.85226Zm5.152,1.26163.04376-1.79528,1.68648.53428.211,2.11366Zm2.0127-1.778-1.26028-.3992,1.50675-.44423,1.41076.48259Z" fill="#fff" stroke="#fff" stroke-miterlimit="10" stroke-width="0.11517"/></g><path id="text-outline" d="M40.15869,6.09668H38V14h.55176V10.60547h1.60693c1.751,0,2.80664-.75488,2.80664-2.30273C42.96533,6.67188,41.92188,6.09668,40.15869,6.09668Zm-.144,4.041H38.55176V6.56445h1.46289c1.60742,0,2.38672.40723,2.38672,1.73828C42.40137,9.59863,41.63379,10.1377,40.01465,10.1377ZM46.49408,8C45.1604,8,44,9.09448,44,11.01208,44,12.90448,45.1604,14,46.49408,14,47.8396,14,49,12.90448,49,11.01208,49,9.09448,47.8396,8,46.49408,8Zm0,5.53558c-1.12494,0-1.96039-1.02374-1.96039-2.5235,0-1.51233.83545-2.54773,1.96039-2.54773,1.12543,0,1.97223,1.0354,1.97223,2.54773C48.46631,12.51184,47.61951,13.53558,46.49408,13.53558ZM57.32379,8h.55646L56.173,14h-.71716l-1.03949-3.72522c-.17328-.57507-.28455-1.12469-.45782-1.712h-.04932c-.136.58728-.28455,1.16235-.46991,1.73743L52.41235,14h-.6557L50,8h.5943L51.658,11.887c.14856.5506.28455,1.06256.4079,1.6h.04987c.136-.53741.28455-1.04938.43262-1.6L53.62463,8h.6557l1.07623,3.887c.14862.5506.29718,1.06256.44525,1.6h.04987c.13593-.53741.28455-1.04938.42053-1.6ZM61.6593,8A2.79264,2.79264,0,0,0,59,11.01208,2.77725,2.77725,0,0,0,61.82452,14a3.56147,3.56147,0,0,0,1.92114-.55939l-.22894-.4043a2.82967,2.82967,0,0,1-1.64148.5119,2.30457,2.30457,0,0,1-2.30237-2.477h4.40173A2.42757,2.42757,0,0,0,64,10.64276C64,8.96362,63.10962,8,61.6593,8Zm-2.08643,2.667a2.22128,2.22128,0,0,1,2.09882-2.21521c1.09448,0,1.79425.75031,1.79425,2.21521ZM71.6593,8A2.79264,2.79264,0,0,0,69,11.01208,2.77725,2.77725,0,0,0,71.82452,14a3.56147,3.56147,0,0,0,1.92114-.55939l-.22894-.4043a2.82967,2.82967,0,0,1-1.64148.5119,2.30457,2.30457,0,0,1-2.30237-2.477h4.40173A2.42757,2.42757,0,0,0,74,10.64276C74,8.96362,73.10962,8,71.6593,8Zm-2.08643,2.667a2.22128,2.22128,0,0,1,2.09882-2.21521c1.09448,0,1.79425.75031,1.79425,2.21521ZM67.42432,8A1.17019,1.17019,0,0,1,68,8.12115l-.12012.48859a1.23216,1.23216,0,0,0-.52783-.09833c-.51562,0-1.12744.4032-1.57129,1.50049V14h-.52734V8.14594H65.709l.04785,1.08545H65.793A1.97734,1.97734,0,0,1,67.42432,8ZM79.27,7.60742,79.29395,8.707A2.66124,2.66124,0,0,0,77.55469,8,2.69985,2.69985,0,0,0,75,10.99023C75,12.93262,75.93555,14,77.38672,14a2.69492,2.69492,0,0,0,1.87109-.88672h.03613l.04785.74316h.45557V5.2334H79.27Zm0,4.97754a2.59812,2.59812,0,0,1-1.811.94727c-1.22363,0-1.895-1.01855-1.895-2.542a2.2586,2.2586,0,0,1,2.02686-2.52246,2.43357,2.43357,0,0,1,1.6792.74316ZM87.49414,8a3.28686,3.28686,0,0,0-1.99072.89941l.02393-1.12793V5.2334H85v8.623h.44385l.05957-.54h.02393A2.97919,2.97919,0,0,0,87.25488,14c1.35547,0,2.542-1.15137,2.542-3.10547C89.79688,9.10742,89.0293,8,87.49414,8Zm-.26367,5.53223a2.76661,2.76661,0,0,1-1.70312-.74316V9.415a3.01756,3.01756,0,0,1,1.88281-.94727c1.31934,0,1.82324,1.01074,1.82324,2.42676C89.2334,12.45313,88.39355,13.53223,87.23047,13.53223Zm8.147-5.28333h.53906l-2.27832,6.47656c-.32422.959-.89941,1.90723-1.93066,1.90723a1.47138,1.47138,0,0,1-.58789-.12012l.12012-.46777a1.34685,1.34685,0,0,0,.46777.0957c.707,0,1.18652-.64746,1.47461-1.52344l.15625-.50293L90.9751,8.2489h.57617l1.3916,3.62207c.17969.47949.40723,1.10352.623,1.60742h.04785c.17969-.50391.37207-1.12793.52832-1.60742ZM106.81934,6h1.34277l-1.51074,7.994h-1.72754l-.9707-4.205c-.13184-.623-.24023-1.23413-.34766-1.84528h-.04883c-.10742.61115-.21582,1.22223-.34766,1.84528l-.94727,4.205h-1.70312L99,6h1.43848l.67188,4.03381c.13184.856.26367,1.71088.39551,2.55487h.04785c.15625-.844.33594-1.71185.50391-2.55487L103.0293,6h1.19922l.97168,4.03381c.168.83105.34766,1.699.51563,2.55487h.04785c.13184-.8559.252-1.71185.38379-2.55487Zm5.301,2a2.81515,2.81515,0,0,0-2.82245,3.00568,2.83343,2.83343,0,1,0,5.65771,0A2.81763,2.81763,0,0,0,112.12036,8Zm-.02942,4.90509c-.85364,0-1.36353-.75708-1.36353-1.89941,0-1.15369.50989-1.91083,1.36353-1.91083s1.3761.75714,1.3761,1.91083C113.467,12.148,112.94458,12.90509,112.09094,12.90509Zm5.895-.06244.17969,1.03223a1.896,1.896,0,0,1-.73145.11914c-.9834,0-1.34277-.63574-1.34277-1.6543V5h1.37891v7.411c0,.33594.15625.45605.2998.45605A.81522.81522,0,0,0,117.986,12.84265Zm38.90857,0,.17969,1.03223a1.896,1.896,0,0,1-.73145.11914c-.9834,0-1.34277-.63574-1.34277-1.6543V5h1.37891v7.411c0,.33594.15625.45605.2998.45605A.81522.81522,0,0,0,156.89453,12.84265ZM122.04761,5a2.96725,2.96725,0,0,1,1.0791.2041L122.863,6.23535a1.62781,1.62781,0,0,0-.64746-.14355c-.47949,0-.74316.31152-.74316.99512V8h1.15039V9.09082h-1.15039V13.994h-1.37988V9.09082h-.791V8.05957L120.09253,8V7.11133C120.09253,5.8877,120.656,5,122.04761,5Zm5.1651,3a1.49309,1.49309,0,0,1,.6709.11914l-.23926,1.19922a1.93926,1.93926,0,0,0-.61133-.0957c-.46777,0-1.03223.32422-1.3916,1.21191V13.994h-1.37891V8h1.13867l.09668,1.18652h.04785A1.99789,1.99789,0,0,1,127.21271,8Zm4.45715,0a4.56106,4.56106,0,0,0-2.41113.76758l.50391.92285a3.278,3.278,0,0,1,1.65527-.5752c.791,0,1.05566.34558,1.06738.9696-2.41113.26367-3.46582.92285-3.46582,2.18262a1.65556,1.65556,0,0,0,1.751,1.72656,2.8663,2.8663,0,0,0,1.82227-.791h.03613l.1084.791h1.127V10.50378C133.8642,8.86121,133.14447,8,131.66986,8Zm.81543,4.26746a1.85133,1.85133,0,0,1-1.2832.64746c-.49219,0-.83984-.22754-.83984-.75586,0-.58691.52734-1.00684,2.123-1.21094Zm10.94489-1.92957V13.994h-1.39062V10.51855c0-.97168-.28809-1.332-.89941-1.332a1.82861,1.82861,0,0,0-1.23535.73242V13.994H138.5249V10.51855c0-.97168-.28809-1.332-.91113-1.332a1.85433,1.85433,0,0,0-1.23535.73242V13.994H135V8h1.13818l.09668.94727h.04785A2.4861,2.4861,0,0,1,138.08154,8a1.60115,1.60115,0,0,1,1.63086,1.05469A2.67334,2.67334,0,0,1,141.60791,8C142.855,8,143.43018,8.85156,143.43018,10.33789Zm9.47217,1.70392.76758.83783A3.15224,3.15224,0,0,1,151.22363,14c-1.99121,0-3.5625-1.41534-3.5625-3.976,0-2.52606,1.60742-4.024,3.62207-4.024a3.09265,3.09265,0,0,1,2.23047.97906l-.76758.84943a2.01012,2.01012,0,0,0-1.45117-.63708c-1.2832,0-2.20605,1.06177-2.20605,2.79706,0,1.75836.85156,2.82007,2.1582,2.82007A2.13794,2.13794,0,0,0,152.90234,12.04181ZM168.62012,8H170v6h-1.12793l-.10742-1.00684h-.03613A2.40073,2.40073,0,0,1,166.834,14c-1.25977,0-1.81152-.85156-1.81152-2.33789V8h1.37891v3.48145c0,.97168.27637,1.332.91211,1.332.51563,0,.86328-.24023,1.30664-.81641Zm6.874-2.61133V7.52344l.04785.94824a2.17241,2.17241,0,0,0-1.54687-.64746c-1.2832,0-2.49512,1.1748-2.49512,3.09375,0,1.94336.94727,3.082,2.42285,3.082a2.45354,2.45354,0,0,0,1.667-.7793h.04785l.0957.7793H176.873V5.38867Zm0,6.8125a1.59156,1.59156,0,0,1-1.23535.66016c-.85156,0-1.33105-.68359-1.33105-1.95508,0-1.23535.61133-1.94336,1.36719-1.94336a1.75475,1.75475,0,0,1,1.19922.49219ZM161.12689,8a2.81515,2.81515,0,0,0-2.82245,3.00568,2.83343,2.83343,0,1,0,5.65771,0A2.81766,2.81766,0,0,0,161.12689,8Zm-.02942,4.90509c-.8537,0-1.36353-.75708-1.36353-1.89941,0-1.15369.50983-1.91083,1.36353-1.91083s1.3761.75714,1.3761,1.91083C162.47357,12.148,161.95111,12.90509,161.09747,12.90509Z" fill="#a6a6a6"/></g></svg>