<?xml version="1.0" standalone="no"?>
<!DOCTYPE svg PUBLIC "-//W3C//DTD SVG 1.1//EN" "http://www.w3.org/Graphics/SVG/1.1/DTD/svg11.dtd" >
<svg>
<metadata>
Mathematica typeface design by Andre Kuzniarek, with Stephen Wolfram, Gregg Snyder, Carl Rohrs, and Andrew Hunt. Copyright (c) 1996-2013 Wolfram Research, Inc. [http://www.wolfram.com]. All rights reserved.
</metadata>
<defs>
<font id="Mathematica-Bold" horiz-adv-x="1208" >
  <font-face 
    font-family="Mathematica"
    font-weight="700"
    font-stretch="normal"
    units-per-em="2048"
    panose-1="5 5 5 2 6 1 0 0 0 1"
    ascent="1638"
    descent="-410"
    x-height="934"
    cap-height="1356"
    bbox="-344 -3981 5203 4516"
    underline-thickness="41"
    underline-position="-255"
    unicode-range="U+0020-1D7E1">
    <font-face-src>
     <font-face-name name='SVGMathematica Bold' />
    </font-face-src>
   </font-face>
<missing-glyph horiz-adv-x="1024" 
d="M128 0v1638h768v-1638h-768zM256 128h512v1382h-512v-1382z" />
    <glyph glyph-name=".notdef" horiz-adv-x="1024" 
d="M128 0v1638h768v-1638h-768zM256 128h512v1382h-512v-1382z" />
    <glyph glyph-name="RawExclamation" unicode="!" horiz-adv-x="682" 
d="M512 1190q0 -49 -21.5 -175t-52.5 -286q-30 -156 -51.5 -262.5l-21.5 -106.5h-46l-23 115t-50 254q-29 148 -51.5 284t-22.5 177q0 82 39 138t131 56q98 0 134 -58t36 -136zM481 94q0 -53 -44 -91t-97 -38q-51 0 -95 37t-44 92q0 56 40 97.5t101 41.5t100 -43t39 -96z
" />
    <glyph glyph-name="RawDoubleQuote" unicode="&#xf10e;" horiz-adv-x="956" 
d="M957 66h-107l-332 213q-38 24 -68 49.5t-30 74.5q0 56 33 76.5t63 20.5q31 0 57 -17.5t46 -38.5q77 -82 185 -204.5t153 -173.5zM537 66h-107l-332 213q-38 24 -68 49.5t-30 74.5q0 56 33 76.5t63 20.5q31 0 57 -17.5t46 -38.5q77 -82 185 -204.5t153 -173.5z" />
    <glyph glyph-name="RawNumberSign" unicode="#" horiz-adv-x="1454" 
d="M1405 246h-246v-246h-194v246h-476v-246h-194v246h-246v194h246v475h-246v195h246v246h194v-246h476v246h194v-246h246v-195h-246v-475h246v-194zM965 440v475h-476v-475h476z" />
    <glyph glyph-name="RawPercent" unicode="%" horiz-adv-x="1898" 
d="M844 1079q0 -181 -118.5 -348.5t-307.5 -167.5q-158 0 -224.5 80t-66.5 213q0 162 140.5 315.5t324.5 153.5q106 0 179 -67.5t73 -178.5zM1466 1358l-802 -1358h-205l803 1358h204zM1773 502q0 -181 -118 -348.5t-307 -167.5q-158 0 -225 80t-67 213q0 162 140.5 315.5
t324.5 153.5q106 0 179 -67.5t73 -178.5zM795 1100q0 59 -35 111.5t-101 52.5q-120 0 -211.5 -146t-91.5 -301q0 -61 30 -110.5t95 -49.5q124 0 219 153t95 290zM1724 523q0 59 -35 111.5t-101 52.5q-120 0 -211.5 -146t-91.5 -301q0 -61 30 -110.5t95 -49.5q124 0 219 153
t95 290z" />
    <glyph glyph-name="RawQuote" unicode="&#xf10f;" horiz-adv-x="537" 
d="M537 403q0 -49 -33 -76.5t-64 -47.5l-334 -213h-106q68 77 167 189t171 189q16 18 46 37t56 19q33 0 65 -18.5t32 -78.5z" />
    <glyph glyph-name="RawLeftParenthesis" unicode="(" horiz-adv-x="715" 
d="M653 -258l-32 -45q-103 67 -188 138t-165 179q-74 100 -120 231.5t-46 297.5q0 162 42 287.5t124 240.5q73 103 162.5 176.5t190.5 143.5l32 -48q-98 -69 -159.5 -162.5t-94.5 -199.5q-34 -111 -42.5 -229.5t-8.5 -206.5q0 -129 8.5 -225.5t42.5 -213.5
q31 -107 92.5 -198.5t161.5 -165.5z" />
    <glyph glyph-name="RawRightParenthesis" unicode=")" horiz-adv-x="715" 
d="M613 543q0 -166 -46 -297.5t-120 -231.5q-80 -108 -165 -179t-188 -138l-32 45q100 74 161.5 165.5t92.5 198.5q34 117 42.5 213.5t8.5 225.5q0 88 -8.5 206.5t-42.5 229.5q-33 106 -94.5 199.5t-159.5 162.5l32 48q101 -70 190.5 -143.5t162.5 -176.5
q82 -115 124 -240.5t42 -287.5z" />
    <glyph glyph-name="RawStar" unicode="&#x22c6;" horiz-adv-x="1038" 
d="M911 616q0 -47 -38.5 -75t-90.5 -41q-59 -15 -107 -22t-89 -21q32 -15 87.5 -25t106.5 -24t90 -41t39 -74q0 -41 -31.5 -75t-74.5 -34q-41 0 -87.5 44t-85.5 91q-21 24 -38 46t-37 34q4 -53 35 -134t31 -134q0 -45 -28 -75.5t-75 -30.5t-77.5 29.5t-30.5 76.5
q0 62 35.5 140.5t39.5 127.5q-18 -15 -37 -34.5t-39 -41.5q-72 -80 -108 -106.5t-72 -26.5q-43 0 -72.5 35t-29.5 76q0 49 38 74.5t91 40.5q50 14 107 21t90 22q-33 14 -90.5 24.5t-104.5 24.5q-53 16 -90 43t-37 74q0 41 31 74.5t74 33.5q61 0 140 -97.5t109 -119.5
q-8 68 -37.5 136.5t-29.5 131.5q0 47 27.5 77t74.5 30t78 -30t31 -77q0 -55 -34 -132t-42 -134q42 32 120.5 119.5t135.5 87.5q43 0 72.5 -34t29.5 -75z" />
    <glyph glyph-name="RawStar" unicode="*" horiz-adv-x="1038" 
d="M911 616q0 -47 -38.5 -75t-90.5 -41q-59 -15 -107 -22t-89 -21q32 -15 87.5 -25t106.5 -24t90 -41t39 -74q0 -41 -31.5 -75t-74.5 -34q-41 0 -87.5 44t-85.5 91q-21 24 -38 46t-37 34q4 -53 35 -134t31 -134q0 -45 -28 -75.5t-75 -30.5t-77.5 29.5t-30.5 76.5
q0 62 35.5 140.5t39.5 127.5q-18 -15 -37 -34.5t-39 -41.5q-72 -80 -108 -106.5t-72 -26.5q-43 0 -72.5 35t-29.5 76q0 49 38 74.5t91 40.5q50 14 107 21t90 22q-33 14 -90.5 24.5t-104.5 24.5q-53 16 -90 43t-37 74q0 41 31 74.5t74 33.5q61 0 140 -97.5t109 -119.5
q-8 68 -37.5 136.5t-29.5 131.5q0 47 27.5 77t74.5 30t78 -30t31 -77q0 -55 -34 -132t-42 -134q42 32 120.5 119.5t135.5 87.5q43 0 72.5 -34t29.5 -75z" />
    <glyph glyph-name="RawPlus" unicode="+" horiz-adv-x="1399" 
d="M1272 428h-473v-469h-197v469h-475v197h475v462h197v-462h473v-197z" />
    <glyph glyph-name="RawDash" unicode="&#x2212;" horiz-adv-x="1384" 
d="M1257 428h-1130v197h1130v-197z" />
    <glyph glyph-name="RawDash" unicode="-" horiz-adv-x="1384" 
d="M1257 428h-1130v197h1130v-197z" />
    <glyph glyph-name="RawDot" unicode="&#xf110;" horiz-adv-x="287" 
d="M287 199q0 -60 -42.5 -102t-101.5 -42q-60 0 -101.5 42t-41.5 102q0 58 42 100.5t101 42.5t101.5 -42.5t42.5 -100.5z" />
    <glyph glyph-name="RawSlash" unicode="&#x2215;" horiz-adv-x="733" 
d="M733 1419l-563 -1779h-170l563 1779h170z" />
    <glyph glyph-name="RawSlash" unicode="/" horiz-adv-x="733" 
d="M733 1419l-563 -1779h-170l563 1779h170z" />
    <glyph glyph-name="RawLess" unicode="&#x3c;" horiz-adv-x="1395" 
d="M1268 -51l-1141 532v94l1141 531v-205l-805 -373l805 -374v-205z" />
    <glyph glyph-name="RawEqual" unicode="=" horiz-adv-x="1386" 
d="M1260 664h-1133v200h1133v-200zM1260 166h-1133v201h1133v-201z" />
    <glyph glyph-name="RawGreater" unicode="&#x3e;" horiz-adv-x="1395" 
d="M127 154l805 374l-805 373v205l1141 -531v-94l-1141 -532v205z" />
    <glyph glyph-name="RawAt" unicode="@" horiz-adv-x="1522" 
d="M1395 643q0 -170 -100 -320.5t-259 -150.5q-65 0 -115.5 45t-56.5 84q-22 -43 -74.5 -85t-117.5 -42q-104 0 -160.5 74t-56.5 174q0 160 114.5 299t270.5 139q16 0 58 -14.5t58 -61.5q24 30 54.5 41.5t53.5 11.5q14 0 31.5 -4t28.5 -6q-37 -137 -83 -312l-46 -175
q-10 -33 2.5 -62.5t51.5 -29.5q100 0 164.5 118.5t64.5 278.5q0 163 -120.5 285.5t-299.5 122.5q-236 0 -381 -169t-145 -409q0 -219 127.5 -342t341.5 -123q86 0 161.5 19.5t190.5 76.5l27 -63q-60 -39 -160 -85t-236 -46q-272 0 -464.5 168t-192.5 444q0 271 215 458
t502 187q227 0 389 -154.5t162 -371.5zM920 649q0 31 -9.5 86.5t-40.5 55.5q-91 0 -159 -133.5t-68 -239.5q0 -35 12.5 -81t57.5 -46q75 0 141 124.5t66 233.5z" />
    <glyph glyph-name="RawLeftBracket" unicode="[" horiz-adv-x="735" 
d="M666 -332h-486v1721h486v-72h-193q-24 0 -38.5 -13.5t-14.5 -29.5v-1489q0 -16 14.5 -29.5t38.5 -13.5h193v-74z" />
    <glyph glyph-name="RawRightBracket" unicode="]" horiz-adv-x="735" 
d="M555 -332h-485v74h192q25 0 39 13.5t14 29.5v1489q0 16 -14 29.5t-39 13.5h-192v72h485v-1721z" />
    <glyph glyph-name="RawWedge" unicode="&#xf111;" horiz-adv-x="760" 
d="M760 23h-127l-254 198l-254 -198h-125l295 423h168z" />
    <glyph glyph-name="RawUnderscore" unicode="_" horiz-adv-x="1188" 
d="M1085 -313h-983v182h983v-182z" />
    <glyph glyph-name="RawBackquote" unicode="&#xf112;" horiz-adv-x="537" 
d="M537 66h-107l-332 213q-38 24 -68 49.5t-30 74.5q0 56 33 76.5t63 20.5q31 0 57 -17.5t46 -38.5q77 -82 185 -204.5t153 -173.5z" />
    <glyph glyph-name="RawLeftBrace" unicode="{" horiz-adv-x="762" 
d="M664 -340q-13 0 -11.5 0h1.5q-184 0 -294 76.5t-110 201.5v404q0 57 -22.5 99t-129.5 87q101 43 126.5 83t25.5 102v385q0 149 114.5 223t285.5 74h4h10v-41q-81 0 -133 -65.5t-52 -153.5v-379q0 -84 -52 -137.5t-134 -92.5q88 -43 137 -89t49 -138v-389q0 -77 50 -143
t135 -66v-41z" />
    <glyph glyph-name="RawVerticalBar" unicode="&#xf432;" horiz-adv-x="557" 
d="M381 -332h-205v1721h205v-1721z" />
    <glyph glyph-name="RawVerticalBar" unicode="|" horiz-adv-x="557" 
d="M381 -332h-205v1721h205v-1721z" />
    <glyph glyph-name="RawRightBrace" unicode="}" horiz-adv-x="762" 
d="M664 528q-107 -45 -129.5 -87t-22.5 -99v-404q0 -125 -110 -201.5t-294 -76.5h1.5t-11.5 0v41q85 0 135 66t50 143v389q0 92 49 138t137 89q-82 39 -134 92.5t-52 137.5v379q0 88 -52 153.5t-133 65.5v41h10h4q171 0 285.5 -74t114.5 -223v-385q0 -62 25.5 -102
t126.5 -83z" />
    <glyph glyph-name="RawTilde" unicode="&#x223c;" horiz-adv-x="1366" 
d="M1239 705q-6 -151 -85.5 -269.5t-246.5 -118.5q-86 0 -151.5 35t-116.5 76q-46 37 -102 75t-107 38q-87 0 -148.5 -53t-97.5 -134l-57 27q22 136 111 241t231 105q80 0 144.5 -35t119.5 -78q49 -39 105.5 -74.5t109.5 -35.5q88 0 149.5 64.5t82.5 160.5z" />
    <glyph glyph-name="RawTilde" unicode="~" horiz-adv-x="1366" 
d="M1239 705q-6 -151 -85.5 -269.5t-246.5 -118.5q-86 0 -151.5 35t-116.5 76q-46 37 -102 75t-107 38q-87 0 -148.5 -53t-97.5 -134l-57 27q22 136 111 241t231 105q80 0 144.5 -35t119.5 -78q49 -39 105.5 -74.5t109.5 -35.5q88 0 149.5 64.5t82.5 160.5z" />
    <glyph glyph-name="DownExclamation" unicode="&#xa1;" horiz-adv-x="682" 
d="M481 813q0 -56 -39 -96q-40 -43 -100 -43t-100.5 41.5t-40.5 97.5q0 52 43.5 90.5t95.5 38.5q55 0 98 -37t43 -92zM512 -283q0 -194 -170 -194t-170 194q0 107 147 830h46q147 -721 147 -830z" />
    <glyph glyph-name="Cent" unicode="&#xa2;" horiz-adv-x="1024" 
d="M973 311q-79 -265 -311 -321v-197h-138v187q-193 -2 -331 128q-142 133 -142 330q0 436 473 496v190h138v-186q105 -6 192 -54q104 -58 109 -149q5 -119 -115 -119q-65 0 -104 44q-31 36 -31 77q0 135 -152 135q-125 0 -202 -117q-68 -105 -68 -245q0 -139 79 -254
q92 -133 238 -133q207 0 318 201z" />
    <glyph glyph-name="Sterling" unicode="&#xa3;" horiz-adv-x="1313" 
d="M1186 301q0 -29 -40 -100q-52 -93 -129 -151q-103 -79 -233 -79q-120 0 -266 109q-104 -109 -219 -109q-70 0 -119 40q-53 43 -53 112q0 99 84 153q70 43 168 43q23 0 45 -5q28 -7 29 -7q4 31 4 90q0 49 -13 139q-15 107 -16 113h-235v133h223q-4 62 -4 113
q0 197 117 334q133 155 366 155q96 0 178 -43q107 -55 107 -155q0 -58 -33 -104q-40 -56 -109 -56q-147 0 -147 127q0 54 40 88q30 27 56 27q-28 63 -115 63q-117 0 -169 -151q-33 -99 -33 -240q0 -27 3 -79q4 -67 5 -79h262v-133h-260q-6 -202 -70 -385q54 -26 108 -51
q63 -29 113 -29q106 0 218 70t116 70q21 0 21 -23zM424 150q-39 34 -96 34q-41 0 -73 -24t-32 -56q0 -75 82 -75q38 0 75 42q31 37 44 79z" />
    <glyph glyph-name="Yen" unicode="&#xa5;" horiz-adv-x="1321" 
d="M1280 1319q-84 0 -149 -91q-12 -17 -82 -151l-183 -348h252v-135h-321v-111h321v-135h-321v-155q0 -148 151 -148v-45h-559v45q152 0 152 148v155h-324v135h324v111h-324v135h250l-205 356l-88 154q-55 76 -133 76v41h557v-43q-47 0 -79 -19.5t-32 -44.5q0 -50 35 -112
l211 -379l191 352q30 57 30 125q0 31 -30 54.5t-78 23.5v43h434v-37z" />
    <glyph glyph-name="Section" unicode="&#xa7;" horiz-adv-x="1016" 
d="M913 510q0 -105 -58.5 -180t-156.5 -94q131 -120 131 -265q0 -130 -109 -208q-97 -68 -228 -68q-107 0 -206 57q-120 70 -120 180q0 52 36 99q43 55 111 55q158 0 158 -147q0 -59 -43 -91q-36 -20 -72 -41q64 -57 144 -57q79 0 120 56q33 45 33 106q0 85 -143 187
q-250 179 -265 192q-143 131 -143 287q0 108 59.5 179.5t160.5 90.5q-140 124 -140 262q0 133 105 209q92 67 227 67q112 0 200 -60q101 -69 101 -181q0 -63 -46 -101q-43 -34 -105 -34q-57 0 -98 35q-46 39 -46 104q0 70 111 135q-50 57 -123 57q-74 0 -111 -57
q-28 -43 -28 -104q0 -71 141 -182q236 -184 262 -210q141 -138 141 -278zM766 436q0 86 -149 222q-146 133 -226 133q-59 0 -98 -41t-39 -115q0 -76 146 -206t221 -130q57 0 98 33q47 37 47 104z" />
    <glyph glyph-name="DoubleDot" unicode="&#xf02f;" horiz-adv-x="737" 
d="M737 199q0 -60 -42 -102t-101 -42q-60 0 -101.5 42t-41.5 102q0 58 41.5 100.5t101.5 42.5q58 0 100.5 -42.5t42.5 -100.5zM287 199q0 -60 -42.5 -102t-101.5 -42q-60 0 -101.5 42t-41.5 102q0 58 42 100.5t101 42.5t101.5 -42.5t42.5 -100.5z" />
    <glyph glyph-name="DoubleDot" unicode="&#xa8;" horiz-adv-x="737" 
d="M737 199q0 -60 -42 -102t-101 -42q-60 0 -101.5 42t-41.5 102q0 58 41.5 100.5t101.5 42.5q58 0 100.5 -42.5t42.5 -100.5zM287 199q0 -60 -42.5 -102t-101.5 -42q-60 0 -101.5 42t-41.5 102q0 58 42 100.5t101 42.5t101.5 -42.5t42.5 -100.5z" />
    <glyph glyph-name="Copyright" unicode="&#xa9;" horiz-adv-x="1610" 
d="M1528 674q0 -309 -212 -520t-509 -211q-303 0 -514 214t-211 517q0 309 214 524t511 215q303 0 512 -218t209 -521zM1389 674q0 243 -172.5 425.5t-409.5 182.5q-238 0 -412 -181t-174 -425q0 -242 174 -424t412 -182q237 0 409.5 181t172.5 423zM1137 778h-82
q0 98 -48.5 158.5t-148.5 60.5q-110 0 -171.5 -87t-61.5 -205q0 -156 69 -252.5t185 -96.5q71 0 125 33t81 90l50 -20q-22 -55 -97.5 -117.5t-208.5 -62.5q-178 0 -302 104t-124 279q0 196 129.5 299.5t309.5 103.5q78 0 186.5 -39l108.5 -39v-209z" />
    <glyph glyph-name="Not" unicode="&#xac;" horiz-adv-x="1393" 
d="M1266 131h-195v410h-944v200h1139v-610z" />
    <glyph glyph-name="RegisteredTrademark" unicode="&#xae;" horiz-adv-x="1610" 
d="M1528 674q0 -309 -212 -520t-509 -211q-303 0 -514 214t-211 517q0 309 214 524t511 215q303 0 512 -218t209 -521zM1389 674q0 243 -172.5 425.5t-409.5 182.5q-238 0 -412 -181t-174 -425q0 -242 174 -424t412 -182q237 0 409.5 181t172.5 423zM1233 317h-201
q-72 42 -119 156t-59 127q-26 29 -52.5 39.5t-59.5 10.5q-7 0 -17 -1.5l-10 -1.5v-225q0 -35 18 -51t46 -16q10 0 14 0.5l4 0.5v-39h-359v41l7 -1.5t15 -1.5q25 0 45.5 12.5t20.5 54.5v553q0 35 -17 48t-45 13q-11 0 -17.5 -1l-6.5 -1v41h404q129 0 215 -43t86 -145
q0 -89 -66 -143t-151 -58q37 -14 71.5 -36.5t53.5 -53.5q13 -21 38.5 -79t52.5 -100q19 -30 38.5 -45.5t50.5 -15.5v-39zM948 868q0 74 -39 120t-118 46q-29 0 -52.5 -6t-23.5 -43v-161.5v-98.5l21.5 -3t37.5 -3q86 0 130 37t44 112z" />
    <glyph glyph-name="Degree" unicode="&#xb0;" horiz-adv-x="827" 
d="M762 1096q0 -146 -102 -247t-246 -101q-146 0 -247 101t-101 247q0 144 101 246t247 102q144 0 246 -102t102 -246zM600 1096q0 76 -55 131t-131 55q-78 0 -132.5 -54.5t-54.5 -131.5q0 -79 54 -133t133 -54q77 0 131.5 54.5t54.5 132.5z" />
    <glyph glyph-name="PlusMinus" unicode="&#xb1;" horiz-adv-x="1399" 
d="M1272 571h-473v-370h-197v370h-475v197h475v397h197v-397h473v-197zM1270 -68h-1145v189h1145v-189z" />
    <glyph glyph-name="Micro" unicode="&#xb5;" horiz-adv-x="1137" 
d="M1085 141q0 -60 -37 -106q-48 -60 -141 -60q-181 0 -225 156q-60 -78 -87 -101q-59 -48 -138 -48q-84 0 -144 53v-461h-258q10 112 20 225q11 134 11 307v785l227 39v-596q0 -250 166 -250q82 0 128 70q40 60 40 145v592l256 43v-608q0 -258 70 -258q39 0 56.5 61
t35.5 61q20 0 20 -49z" />
    <glyph glyph-name="Paragraph" unicode="&#xb6;" horiz-adv-x="1196" 
d="M1073 -410h-139v1606h-105v-1606h-194v883q-41 -4 -72 -4q-169 0 -305 101q-176 131 -176 376q0 188 137 296q145 114 414 114h440v-1766zM635 557v666q0 27 -4 39t-19 12q-95 0 -161 -71q-84 -91 -84 -271q0 -195 91 -299q69 -78 150 -78q7 0 16 1t11 1z" />
    <glyph glyph-name="CenterDot" unicode="&#xb7;" horiz-adv-x="571" 
d="M444 522q0 -66 -46.5 -111.5t-112.5 -45.5t-112 45.5t-46 111.5t46 113t112 47t112.5 -47t46.5 -113z" />
    <glyph glyph-name="DownQuestion" unicode="&#xbf;" horiz-adv-x="954" 
d="M616 823q0 -58 -42 -97.5t-95 -39.5q-52 0 -95.5 41t-43.5 96q0 56 43 98t96 42q52 0 94.5 -41.5t42.5 -98.5zM872 -158q0 -135 -129 -217q-110 -69 -251 -69q-173 0 -278 64q-132 81 -132 251q0 114 84 235q80 106 161 212q91 134 103 272h111q0 -163 -53 -281
q-50 -92 -99 -185q-53 -115 -53 -269q0 -89 50 -159q57 -81 149 -81q45 0 86 23q55 31 55 92q0 35 -36 70t-36 91q0 44 34.5 76.5t96.5 32.5q67 0 105 -50q32 -44 32 -108z" />
    <glyph glyph-name="CapitalEth" unicode="&#xd0;" horiz-adv-x="1561" 
d="M1493 676q0 -349 -267 -526q-226 -150 -585 -150h-600v39q180 0 180 127v422h-180v184h180v418q0 127 -180 127v39h584q365 0 595 -150q273 -179 273 -530zM1192 672q0 312 -177 469q-157 139 -427 139q-105 0 -114 -51q-3 -14 -3 -41v-416h236v-184h-236v-400
q0 -106 131 -106q267 0 417 130q173 149 173 460z" />
    <glyph glyph-name="Times" unicode="&#xd7;" horiz-adv-x="1315" 
d="M1225 100l-140 -139l-428 426l-428 -426l-139 139l424 424l-424 424l139 139l428 -425l428 425l140 -139l-424 -424z" />
    <glyph glyph-name="CapitalYAcute" unicode="&#xdd;" horiz-adv-x="1544" 
d="M1163 1694q0 -50 -84 -107l-293 -166h-114l266 271q73 80 139 80q34 0 60 -23t26 -55zM1520 1317q-144 -15 -303 -260l-283 -436v-453q0 -129 207 -129v-39h-703v39q207 0 207 125v436l-328 490q-72 107 -116 151q-76 76 -156 76v39h614v-39q-145 7 -145 -57
q0 -42 35 -95l303 -454l291 460q31 50 31 80q0 74 -142 66v39h488v-39z" />
    <glyph glyph-name="CapitalThorn" unicode="&#xde;" horiz-adv-x="1221" 
d="M1192 743q0 -387 -553 -387q-73 0 -143 6v-198q0 -125 180 -125v-39h-653v39q180 0 180 125v1028q0 125 -170 125v39h633v-39q-113 0 -146 -49q-24 -36 -24 -148q77 4 118 4q578 0 578 -381zM895 745q0 158 -105 236q-83 61 -206 61q-61 0 -74.5 -14t-13.5 -80v-508
q24 -2 73 -2q326 0 326 307z" />
    <glyph glyph-name="Eth" unicode="&#xf0;" horiz-adv-x="1104" 
d="M1042 487q0 -218 -132 -362q-135 -145 -345 -145q-224 0 -368 144q-136 135 -136 322q0 226 149 367q143 135 361 135q-24 42 -90 129l-264 -104l-94 125q207 57 270 82q-72 75 -225 153l151 68q101 -56 137 -78q75 -46 128 -92l278 96l94 -125q-194 -38 -266 -69
q163 -167 233 -276q119 -184 119 -370zM776 403q0 186 -68 324q-72 147 -182 147q-102 0 -158 -117q-42 -90 -42 -200q0 -166 57 -316q77 -200 219 -200q92 0 137 117q37 96 37 245z" />
    <glyph glyph-name="Divide" unicode="&#xf7;" horiz-adv-x="1384" 
d="M862 1014q0 -64 -46 -109t-109 -45t-108.5 45.5t-45.5 108.5t45.5 108t108.5 45t109 -44.5t46 -108.5zM1257 428h-1130v197h1130v-197zM862 23q0 -64 -46 -109t-109 -45t-108.5 45.5t-45.5 108.5t45.5 108t108.5 45t109 -44.5t46 -108.5z" />
    <glyph glyph-name="YAcute" unicode="&#xfd;" horiz-adv-x="1130" 
d="M948 1311q0 -50 -84 -107l-293 -166h-114l266 271q73 80 139 80q34 0 60 -23t26 -55zM1081 889q-75 0 -137 -162l-309 -805q-141 -366 -367 -366q-69 0 -129.5 45t-60.5 96q0 60 36 93q31 28 74 28q55 0 86 -42t60 -42q59 0 129 109q63 97 74 171l-349 738
q-39 83 -65 107q-31 30 -92 30v29h520v-29q-123 0 -123 -62q0 -18 10 -43l221 -499l189 522q4 13 4 23q0 59 -107 59v29h336v-29z" />
    <glyph glyph-name="Thorn" unicode="&#xfe;" horiz-adv-x="1108" 
d="M1047 469q0 -200 -103 -338q-113 -151 -303 -151q-141 0 -225 81l2 -342q0 -76 40 -106q33 -24 115 -29v-28h-569v28q83 5 116 29q40 30 40 106v1428q0 64 -4 77q-12 37 -59 37q-8 0 -31 -1h-39v38q144 32 391 99v-623h4q80 164 266 164q174 0 272 -148q87 -131 87 -321z
M799 414q0 405 -203 405q-69 0 -120 -46q-58 -53 -58 -140v-471q0 -59 71 -92q54 -25 109 -25q106 0 159 124q42 98 42 245z" />
    <glyph glyph-name="CapitalABar" unicode="&#x100;" horiz-adv-x="1479" 
d="M1044 1493h-677v147h677v-147zM1432 0h-664v51q49 4 106 8q58 17 58 76q0 55 -96 266h-459q-86 -235 -86 -272q0 -72 164 -78v-51h-418v51q78 6 133 88q20 31 70 152l454 1120h58l534 -1255q60 -105 146 -105v-51zM805 483l-197 473h-16l-184 -473h397z" />
    <glyph glyph-name="ABar" unicode="&#x101;" horiz-adv-x="1024" 
d="M842 1155h-678v148h678v-148zM999 86q-98 -115 -229 -115q-141 0 -168 142q-141 -142 -319 -142q-101 0 -166.5 60.5t-65.5 158.5q0 158 207 265q96 47 344 118v150q0 94 -41 135t-135 41q-125 0 -125 -72q0 -12 29.5 -53t29.5 -78q0 -55 -36.5 -88t-92.5 -33
q-63 0 -102 37t-39 99q0 131 133 200q105 56 250 56q408 0 408 -318v-495q0 -54 37 -54q22 0 51 29zM598 203v299q-248 -60 -248 -248q0 -51 23 -90q26 -47 76 -47q73 0 149 86z" />
    <glyph glyph-name="CapitalACup" unicode="&#x102;" horiz-adv-x="1479" 
d="M1042 1815q-4 -154 -81 -242q-84 -94 -236 -94q-293 0 -303 336h90q18 -97 67.5 -138t145.5 -41q199 0 227 179h90zM1432 0h-664v51q49 4 106 8q58 17 58 76q0 55 -96 266h-459q-86 -235 -86 -272q0 -72 164 -78v-51h-418v51q78 6 133 88q20 31 70 152l454 1120h58
l534 -1255q60 -105 146 -105v-51zM805 483l-197 473h-16l-184 -473h397z" />
    <glyph glyph-name="ACup" unicode="&#x103;" horiz-adv-x="1024" 
d="M846 1415q-4 -153 -82 -241q-84 -95 -236 -95q-290 0 -305 336h92q35 -178 213 -178q199 0 228 178h90zM999 86q-98 -115 -229 -115q-141 0 -168 142q-141 -142 -319 -142q-101 0 -166.5 60.5t-65.5 158.5q0 158 207 265q96 47 344 118v150q0 94 -41 135t-135 41
q-125 0 -125 -72q0 -12 29.5 -53t29.5 -78q0 -55 -36.5 -88t-92.5 -33q-63 0 -102 37t-39 99q0 131 133 200q105 56 250 56q408 0 408 -318v-495q0 -54 37 -54q22 0 51 29zM598 203v299q-248 -60 -248 -248q0 -51 23 -90q26 -47 76 -47q73 0 149 86z" />
    <glyph glyph-name="CapitalCAcute" unicode="&#x106;" horiz-adv-x="1479" 
d="M1112 1817q0 -60 -84 -111l-291 -180h-114l280 323q49 58 111 58q98 0 98 -90zM1380 260q-133 -149 -250 -217q-145 -84 -319 -84q-324 0 -529.5 197.5t-205.5 519.5q0 319 199.5 526t517.5 207q84 0 225 -47t178 -47q76 0 92 94h58v-479h-52q-198 411 -477 411
q-379 0 -379 -655q0 -627 404 -627q143 0 266 72q94 55 213 178z" />
    <glyph glyph-name="CAcute" unicode="&#x107;" horiz-adv-x="909" 
d="M807 1370q0 -57 -82 -108l-293 -183h-115l281 324q49 57 111 57q98 0 98 -90zM874 186q-157 -217 -385 -217q-200 0 -325 146q-121 137 -121 340q0 221 133 367.5t352 146.5q119 0 209 -54q109 -61 109 -172q0 -57 -38 -94t-95 -37q-84 0 -109 66q-10 27 -11 94.5
t-11 91.5q-19 41 -74 41q-174 0 -174 -344q0 -168 57 -291q76 -161 223 -161q121 0 222 112z" />
    <glyph glyph-name="CapitalCHacek" unicode="&#x10c;" horiz-adv-x="1479" 
d="M1133 1886l-250 -360h-191l-252 360h117l229 -200l232 200h115zM1380 260q-133 -149 -250 -217q-145 -84 -319 -84q-324 0 -529.5 197.5t-205.5 519.5q0 319 199.5 526t517.5 207q84 0 225 -47t178 -47q76 0 92 94h58v-479h-52q-198 411 -477 411q-379 0 -379 -655
q0 -627 404 -627q143 0 266 72q94 55 213 178z" />
    <glyph glyph-name="CHacek" unicode="&#x10d;" horiz-adv-x="909" 
d="M827 1442l-249 -363h-191l-252 363h117l229 -203l232 203h114zM874 186q-157 -217 -385 -217q-200 0 -325 146q-121 137 -121 340q0 221 133 367.5t352 146.5q119 0 209 -54q109 -61 109 -172q0 -57 -38 -94t-95 -37q-84 0 -109 66q-10 27 -11 94.5t-11 91.5
q-19 41 -74 41q-174 0 -174 -344q0 -168 57 -291q76 -161 223 -161q121 0 222 112z" />
    <glyph glyph-name="CapitalEBar" unicode="&#x112;" horiz-adv-x="1366" 
d="M1014 1491h-678v147h678v-147zM1313 426l-82 -426h-1198v51q92 4 131 29q51 33 51 117v991q0 86 -51 117q-39 22 -131 26v53h1179v-413h-49q-43 211 -153 282q-95 62 -320 62q-80 0 -102 -10q-43 -19 -43 -86v-476h10q164 0 231 72q58 59 91 232h53v-693h-53
q-23 178 -86 246q-72 74 -246 74v-498q0 -74 53 -96q33 -14 119 -14q207 0 332 86q118 81 206 274h58z" />
    <glyph glyph-name="EBar" unicode="&#x113;" horiz-adv-x="909" 
d="M786 1155h-677v148h677v-148zM866 227q-155 -256 -405 -256q-201 0 -314 154q-102 137 -102 344t109 346q116 152 319 152q189 0 291 -144q92 -127 94 -321h-522q20 -381 252 -381q108 0 231 135zM606 578q-4 151 -14 200q-27 125 -119 125q-90 0 -123 -125
q-16 -63 -18 -200h274z" />
    <glyph glyph-name="CapitalECup" unicode="&#x114;" horiz-adv-x="1366" 
d="M1012 1817q-4 -154 -82 -242q-82 -94 -234 -94q-290 0 -305 336h90q19 -97 68 -138t147 -41q199 0 226 179h90zM1313 426l-82 -426h-1198v51q92 4 131 29q51 33 51 117v991q0 86 -51 117q-39 22 -131 26v53h1179v-413h-49q-43 211 -153 282q-95 62 -320 62
q-80 0 -102 -10q-43 -19 -43 -86v-476h10q164 0 231 72q58 59 91 232h53v-693h-53q-23 178 -86 246q-72 74 -246 74v-498q0 -74 53 -96q33 -14 119 -14q207 0 332 86q118 81 206 274h58z" />
    <glyph glyph-name="ECup" unicode="&#x115;" horiz-adv-x="909" 
d="M772 1415q-4 -153 -82 -241q-82 -95 -233 -95q-291 0 -305 336h90q34 -178 215 -178q198 0 225 178h90zM866 227q-155 -256 -405 -256q-201 0 -314 154q-102 137 -102 344t109 346q116 152 319 152q189 0 291 -144q92 -127 94 -321h-522q20 -381 252 -381q108 0 231 135z
M606 578q-4 151 -14 200q-27 125 -119 125q-90 0 -123 -125q-16 -63 -18 -200h274z" />
    <glyph glyph-name="CapitalICup" unicode="&#x12c;" horiz-adv-x="797" 
d="M705 1808q-5 -153 -82 -241q-84 -94 -236 -94q-293 0 -303 335h90q19 -96 68 -137t145 -41q199 0 227 178h91zM750 0h-717v51q94 4 133 27q53 33 53 119v991q0 88 -53 119q-35 20 -133 24v53h717v-53q-101 -4 -138 -24q-55 -31 -55 -119v-991q0 -86 57 -121
q43 -25 136 -25v-51z" />
    <glyph glyph-name="ICup" unicode="&#x12d;" horiz-adv-x="569" 
d="M598 1415q-4 -153 -82 -241q-82 -95 -233 -95q-291 0 -306 336h91q34 -178 215 -178q198 0 225 178h90zM520 0h-487v49q59 10 81.5 37t22.5 86v602q0 62 -21.5 85.5t-82.5 33.5v49h393v-776q0 -60 18.5 -82.5t75.5 -34.5v-49z" />
    <glyph glyph-name="DotlessI" unicode="&#x131;" horiz-adv-x="596" 
d="M549 0h-506v39q68 0 92 12q35 18 35 76v598q0 72 -29 72h-102v55l387 100v-825q0 -40 11 -58q19 -30 112 -30v-39z" />
    <glyph glyph-name="CapitalLSlash" unicode="&#x141;" horiz-adv-x="1317" 
d="M1290 322l-53 -322h-1110v49q147 0 147 125v236l-112 -138h-135l247 301v617q0 50 -34 85q-41 40 -115 40v41h580v-41q-140 0 -140 -125v-266l142 172h131l-273 -332v-580q0 -44 39.5 -59.5t167.5 -15.5q19 0 56.5 -1t55.5 -1q132 0 200 34q95 48 139 181h67z" />
    <glyph glyph-name="LSlash" unicode="&#x142;" horiz-adv-x="813" 
d="M786 1075l-260 -317v-584q0 -77 33 -104q30 -26 115 -31v-39h-551v39q85 5 116 31.5t31 103.5v272l-108 -133h-135l243 295v539q0 103 -23 120q-16 11 -134 11v29q161 28 413 90v-477l129 155h131z" />
    <glyph glyph-name="CapitalODoubleAcute" unicode="&#x150;" horiz-adv-x="1593" 
d="M1300 1761q0 -57 -81 -108l-291 -183h-115l281 324q49 57 110 57q96 0 96 -90zM922 1757q0 -45 -82 -104l-279 -199h-112l264 340q45 57 112 57q97 0 97 -94zM1520 686q0 -319 -203 -523t-522 -204q-316 0 -522.5 201.5t-206.5 515.5q0 325 201.5 532t527.5 207
q319 0 522 -204.5t203 -524.5zM1155 686q0 254 -61 418q-90 242 -299 242q-365 0 -365 -660q0 -657 365 -657q360 0 360 657z" />
    <glyph glyph-name="ODoubleAcute" unicode="&#x151;" horiz-adv-x="1024" 
d="M977 1370q0 -57 -82 -108l-293 -183h-113l279 324q49 57 113 57q96 0 96 -90zM598 1366q0 -45 -84 -104l-276 -197h-113l264 338q45 57 113 57q96 0 96 -94zM969 469q0 -209 -125 -350q-129 -150 -336 -150t-335 145.5t-128 354.5t128 354.5t335 145.5t338 -148
q123 -141 123 -352zM668 469q0 186 -15 262q-32 172 -145 172q-115 0 -148 -172q-14 -76 -14 -262q0 -188 14 -262q33 -172 148 -172t147 174q13 65 13 260z" />
    <glyph glyph-name="CapitalSHacek" unicode="&#x160;" horiz-adv-x="1139" 
d="M918 1860l-250 -361h-191l-252 361h117l229 -201l232 201h115zM1051 401q0 -206 -160 -325q-143 -105 -356 -105q-125 0 -250 47q-66 25 -90 25q-45 0 -66 -72h-57v506h57q100 -436 418 -436q108 0 183 57.5t75 163.5q0 94 -62 152q-34 32 -165 98q-269 135 -328 180
q-164 127 -164 318q0 186 127 299q121 110 309 110q80 0 199 -33.5t139 -33.5q51 0 70 69h59v-444h-55q-43 160 -137 260q-111 119 -260 119q-95 0 -156 -49q-70 -56 -70 -146q0 -94 58 -145q49 -45 249 -144q232 -114 297 -170q136 -116 136 -301z" />
    <glyph glyph-name="SHacek" unicode="&#x161;" horiz-adv-x="797" 
d="M729 1442l-250 -363h-190l-250 363h115l229 -203l231 203h115zM743 283q0 -142 -93 -227t-236 -85q-47 0 -136.5 30t-117.5 30q-27 0 -60 -60h-49v338h58q22 -114 92 -186q78 -80 188 -80q154 0 154 127q0 84 -127 149l-236 123q-127 90 -127 234q0 133 92 215
q88 76 224 76q41 0 119.5 -21.5t109.5 -21.5q39 0 53 41h45v-297h-53q-63 229 -248 229q-57 0 -96 -31.5t-39 -87.5q0 -78 125 -141l233 -121q125 -90 125 -233z" />
    <glyph glyph-name="CapitalUDoubleAcute" unicode="&#x170;" horiz-adv-x="1479" 
d="M1239 1778q0 -60 -84 -111l-291 -180h-112l278 323q49 58 113 58q96 0 96 -90zM860 1774q0 -48 -84 -107l-276 -197h-115l266 340q45 58 113 58q96 0 96 -94zM1436 1331q-97 -18 -125 -45q-35 -33 -35 -127v-655q0 -545 -522 -545q-553 0 -553 500v686q0 108 -30 141
t-138 45v53h692v-53q-117 -4 -156 -35q-43 -36 -43 -151v-686q0 -400 293 -400q367 0 367 445v626q0 111 -43 152t-158 49v53h451v-53z" />
    <glyph glyph-name="UDoubleAcute" unicode="&#x171;" horiz-adv-x="1139" 
d="M1040 1370q0 -55 -84 -108l-290 -183h-113l278 324q50 57 113 57q96 0 96 -90zM662 1366q0 -45 -84 -104l-277 -197h-115l267 338q45 57 110 57q99 0 99 -94zM1100 41q-256 -25 -400 -70v135q-153 -135 -294 -135q-132 0 -201.5 77t-69.5 210v516q0 62 -20.5 84.5
t-81.5 34.5v49h387v-694q0 -142 117 -142q75 0 163 89v579q0 68 -30 94q-25 21 -97 25v49h408v-735q0 -66 25.5 -90.5t93.5 -30.5v-45z" />
    <glyph glyph-name="Hacek" unicode="&#xf031;" horiz-adv-x="760" 
d="M760 446l-297 -423h-168l-295 423h125l254 -198l254 198h127z" />
    <glyph glyph-name="Hacek" unicode="&#x2c7;" horiz-adv-x="760" 
d="M760 446l-297 -423h-168l-295 423h125l254 -198l254 198h127z" />
    <glyph glyph-name="Breve" unicode="&#xf02e;" horiz-adv-x="659" 
d="M659 426q0 -178 -80.5 -290.5t-248.5 -112.5q-166 0 -248 113.5t-82 289.5h119q16 -88 82.5 -143.5t126.5 -55.5q59 0 127.5 56.5t87.5 142.5h116z" />
    <glyph glyph-name="Breve" unicode="&#x2d8;" horiz-adv-x="659" 
d="M659 426q0 -178 -80.5 -290.5t-248.5 -112.5q-166 0 -248 113.5t-82 289.5h119q16 -88 82.5 -143.5t126.5 -55.5q59 0 127.5 56.5t87.5 142.5h116z" />
    <glyph glyph-name="CapitalAlpha" unicode="&#x391;" horiz-adv-x="1556" 
d="M1516 0h-605v43q72 0 98.5 23.5t26.5 62.5q0 27 -11.5 62.5t-31.5 82.5l-71 166h-506l-80 -200q-10 -24 -19.5 -57t-9.5 -54q0 -41 27.5 -64.5t107.5 -23.5v-41h-395v41q88 0 142.5 96t78.5 154l453 1093h61l510 -1105q52 -113 96.5 -174.5t127.5 -61.5v-43zM885 522
l-223 520l-213 -520h436z" />
    <glyph glyph-name="CapitalBeta" unicode="&#x392;" horiz-adv-x="1348" 
d="M1270 375q0 -179 -143.5 -277t-428.5 -98h-649v41q109 0 137.5 26.5t28.5 53.5v1114q0 44 -45 63t-121 19v39h551q268 0 435 -78t167 -289q0 -127 -89 -195.5t-202 -78.5q137 -12 248 -100.5t111 -239.5zM920 1014q0 125 -91.5 197.5t-236.5 72.5q-37 0 -65.5 -6
t-28.5 -37v-489h127q128 0 211.5 59.5t83.5 202.5zM967 352q0 158 -100.5 238t-309.5 80h-61v-508q0 -39 32.5 -64.5t98.5 -25.5q159 0 249.5 71t90.5 209z" />
    <glyph glyph-name="CapitalGamma" unicode="&#x393;" horiz-adv-x="1212" 
d="M1151 1059h-57q-18 103 -74 145.5t-125 42.5h-356q-29 0 -40.5 -13t-11.5 -26v-1046q0 -56 35 -88.5t115 -32.5v-41h-580v41q90 0 119 39t29 82v1038q0 45 -20.5 79t-127.5 34v43h1094v-297z" />
    <glyph glyph-name="CapitalDelta" unicode="&#x394;" horiz-adv-x="1386" 
d="M1339 0h-1292l608 1384h45zM922 244l-332 768l-334 -768h666z" />
    <glyph glyph-name="CapitalEpsilon" unicode="&#x395;" horiz-adv-x="1298" 
d="M1260 352l-95 -352h-1120v41q78 0 113 27t35 79v1061q0 58 -41 81.5t-107 23.5v43h1102v-297h-64q-8 63 -59.5 123.5t-151.5 60.5h-346q-28 0 -39.5 -10t-11.5 -49v-432h209q117 0 182.5 44t65.5 152h61v-477h-63q0 115 -56.5 157t-191.5 42h-207v-500q0 -37 22.5 -47
t45.5 -10h276q150 0 228 55.5t135 183.5h78z" />
    <glyph glyph-name="CapitalZeta" unicode="&#x396;" horiz-adv-x="1354" 
d="M1307 375l-50 -375h-1220v74l887 1167h-394q-133 0 -221 -35t-116 -211h-82l41 361h1138v-74l-868 -1147h457q159 0 240 57.5t114 182.5h74z" />
    <glyph glyph-name="CapitalEta" unicode="&#x397;" horiz-adv-x="1524" 
d="M1479 0h-594v41q73 0 114 20.5t41 88.5v507h-544v-507q0 -66 42 -87.5t113 -21.5v-41h-594v41q70 0 113 21.5t43 87.5v1058q0 64 -45 84.5t-111 20.5v43h594v-43q-71 0 -113 -16.5t-42 -88.5v-469h544v469q0 68 -42 86.5t-113 18.5v43h594v-43q-68 0 -112 -18.5
t-44 -86.5v-1058q0 -62 44 -85.5t112 -23.5v-41z" />
    <glyph glyph-name="CapitalTheta" unicode="&#x398;" horiz-adv-x="1497" 
d="M1454 674q0 -305 -203 -503t-508 -198q-308 0 -507 201t-199 508q0 299 194.5 501.5t524.5 202.5q317 0 507.5 -210.5t190.5 -501.5zM1151 686q0 252 -92 443.5t-305 191.5q-182 0 -298 -149t-116 -472q0 -310 94 -485.5t283 -175.5q211 0 322.5 164.5t111.5 482.5z
M1001 428h-51q0 66 -30.5 95.5t-90.5 29.5h-172q-59 0 -87.5 -32t-28.5 -93h-52v514h52q0 -59 30.5 -93t90.5 -34h172q55 0 85.5 38t30.5 89h51v-514z" />
    <glyph glyph-name="CapitalIota" unicode="&#x399;" horiz-adv-x="719" 
d="M672 0h-623v41q72 0 121 24.5t49 110.5v1012q0 82 -50 103.5t-120 21.5v43h623v-43q-76 0 -123 -18.5t-47 -106.5v-1012q0 -80 51 -107.5t119 -27.5v-41z" />
    <glyph glyph-name="CapitalKappa" unicode="&#x39a;" horiz-adv-x="1540" 
d="M1503 0h-684v41q68 0 100.5 13.5t32.5 41.5q0 27 -66.5 103.5t-150.5 162.5q-69 71 -159.5 155.5t-106.5 100.5v-456q0 -81 44 -103t114 -22v-37h-590v37q80 0 114.5 24.5t34.5 106.5v1030q0 52 -27.5 86.5t-121.5 34.5v37h590v-37q-86 0 -122 -32t-36 -91v-455
q74 63 196.5 180l122.5 117q68 63 113 124.5t45 90.5q0 36 -32 50t-83 14h-20v39h549v-39q-98 0 -170.5 -39.5t-173.5 -138.5l-342 -336q254 -256 364.5 -377l110.5 -121q113 -119 194.5 -193.5t159.5 -74.5v-37z" />
    <glyph glyph-name="CapitalLambda" unicode="&#x39b;" horiz-adv-x="1542" 
d="M1499 0h-575v41q57 0 88.5 12.5t31.5 55.5q0 20 -6.5 46.5t-27.5 73.5l-355 805l-309 -753q-20 -48 -28.5 -87.5t-8.5 -60.5q0 -61 40 -76.5t97 -15.5v-41h-417v41q71 0 125.5 63t101.5 179l451 1101h71l510 -1105q62 -135 99.5 -186.5t111.5 -51.5v-41z" />
    <glyph glyph-name="CapitalMu" unicode="&#x39c;" horiz-adv-x="1808" 
d="M1782 0h-578v37q88 0 117 24.5t29 112.5v895h-2l-502 -1069h-33l-494 1009h-2v-835q0 -72 63.5 -104.5t145.5 -32.5v-37h-497v37q80 0 138 30.5t58 104.5v977q0 82 -41 124t-153 42v41h434l471 -969l446 969h396v-39q-97 0 -121.5 -33t-24.5 -84v-1028q0 -76 37 -105.5
t113 -29.5v-37z" />
    <glyph glyph-name="CapitalNu" unicode="&#x39d;" horiz-adv-x="1534" 
d="M1483 1319q-125 0 -166 -33t-41 -106v-1207h-53l-887 1051v-856q0 -72 63.5 -99.5t143.5 -27.5v-41h-508v41q80 0 144.5 24.5t64.5 98.5v973q-45 49 -105.5 115.5t-103.5 66.5v39h379l770 -916v736q0 65 -41 103t-166 38v39h506v-39z" />
    <glyph glyph-name="CapitalXi" unicode="&#x39e;" horiz-adv-x="1260" 
d="M1204 946h-59q-25 129 -96.5 156.5t-186.5 27.5h-465q-135 0 -197.5 -35.5t-84.5 -148.5h-62l15 410h1130zM1034 453h-47q0 79 -35 97.5t-86 18.5h-454q-47 0 -84 -18.5t-37 -97.5h-45v475h47q0 -80 36 -100.5t87 -20.5h454q54 0 86.5 17.5t32.5 103.5h45v-475zM1210 420
l-12 -420h-1128l-13 420h58q20 -131 100 -154.5t186 -23.5h465q94 0 178 22.5t105 155.5h61z" />
    <glyph glyph-name="CapitalOmicron" unicode="&#x39f;" horiz-adv-x="1501" 
d="M1454 674q0 -305 -203 -503t-508 -198q-308 0 -507 201t-199 508q0 299 194.5 501.5t524.5 202.5q317 0 507.5 -210.5t190.5 -501.5zM1151 686q0 252 -92 443.5t-305 191.5q-182 0 -298 -149t-116 -472q0 -310 94 -485.5t283 -175.5q211 0 322.5 164.5t111.5 482.5z" />
    <glyph glyph-name="CapitalPi" unicode="&#x3a0;" horiz-adv-x="1501" 
d="M1456 0h-584v39q69 0 110.5 19t41.5 112v999q0 29 -7 53.5t-65 24.5h-409q-45 0 -56.5 -24.5t-11.5 -49.5v-1003q0 -84 33.5 -107.5t120.5 -23.5v-39h-586v39q111 0 130.5 31.5t19.5 97.5v1040q0 68 -38 85.5t-112 17.5v45h1413v-45q-84 0 -116.5 -15.5t-32.5 -91.5
v-1040q0 -76 31 -100.5t118 -24.5v-39z" />
    <glyph glyph-name="CapitalRho" unicode="&#x3a1;" 
d="M1163 975q0 -187 -149.5 -287t-411.5 -100q-27 0 -64.5 2t-72.5 4v-449q0 -51 35 -78.5t116 -27.5v-39h-583v39q92 0 120.5 31.5t28.5 76.5v1049q0 79 -42.5 98t-98.5 19v43h522q283 0 441.5 -102t158.5 -279zM866 975q0 149 -86.5 223t-247.5 74q-47 0 -57 -19.5
t-10 -62.5v-504q12 0 30.5 -2t32.5 -2q164 0 251 75t87 218z" />
    <glyph glyph-name="CapitalSigma" unicode="&#x3a3;" horiz-adv-x="1249" 
d="M1190 518l-23 -518h-1130l551 676l-500 680h1036l17 -424h-74q-29 160 -65.5 209t-163.5 49h-396l334 -485l-366 -451h448q137 0 183 55.5t71 208.5h78z" />
    <glyph glyph-name="CapitalTau" unicode="&#x3a4;" horiz-adv-x="1270" 
d="M1227 1006h-64q-28 155 -81.5 202t-178.5 47h-133v-1065q0 -75 27.5 -114t126.5 -39v-37h-590v37q96 0 124.5 38t28.5 113v1065h-133q-127 0 -179 -46t-83 -201h-63l18 350h1167z" />
    <glyph glyph-name="CapitalUpsilon" unicode="&#x3a5;" horiz-adv-x="1401" 
d="M1386 1235l-24 -18q-30 20 -70 35.5t-73 15.5q-129 0 -251 -186.5t-177 -422.5v-499q0 -78 44.5 -100.5t133.5 -22.5v-37h-639v37q74 0 126 22t52 97v448q-51 201 -165 415t-198 214q-39 0 -62.5 -25.5l-23.5 -25.5l-39 20q11 86 61 124t122 38q159 0 275 -164t210 -465
q118 376 244 508.5t268 132.5q28 0 77 -34t109 -107z" />
    <glyph glyph-name="CapitalPhi" unicode="&#x3a6;" horiz-adv-x="1386" 
d="M1349 677q0 -188 -151.5 -311.5t-366.5 -154.5v-35q0 -80 51.5 -107.5t118.5 -27.5v-41h-623v41q72 0 121 24.5t49 110.5v36q-205 31 -362 151t-157 314q0 188 151 311t368 155v45q0 81 -50 103t-120 22v43h623v-43q-75 0 -122.5 -19t-47.5 -106v-45q221 -32 369.5 -156
t148.5 -310zM1063 677q0 122 -59 234.5t-173 155.5v-774q106 45 169 153t63 231zM548 291v777q-119 -44 -176 -155.5t-57 -235.5q0 -115 61.5 -227t171.5 -159z" />
    <glyph glyph-name="CapitalChi" unicode="&#x3a7;" horiz-adv-x="1575" 
d="M1526 0h-647v37q69 0 101 15.5t32 43.5q0 18 -32 70t-64 99l-201 298l-277 -327q-23 -27 -39 -59t-16 -54q0 -41 43.5 -63.5t122.5 -22.5v-37h-510v41q67 0 142.5 64.5t123.5 121.5l355 414l-214 299q-147 211 -221.5 291t-165.5 80v45h652v-43h-21q-30 0 -74.5 -9.5
t-44.5 -46.5q0 -23 45 -89.5t88 -126.5l135 -190l253 296q22 25 31.5 46t9.5 42q0 36 -39 57t-115 21v43h524v-43q-64 0 -137 -34t-211 -194l-261 -309l382 -518q64 -87 116.5 -154t133.5 -67v-37z" />
    <glyph glyph-name="CapitalPsi" unicode="&#x3a8;" horiz-adv-x="1325" 
d="M1297 1270l-7 -45q-49 -4 -64.5 -82t-15.5 -117q0 -33 0.5 -67t0.5 -58q0 -176 -87.5 -276t-324.5 -119v-330q0 -80 51.5 -107.5t118.5 -27.5v-41h-623v41q72 0 121 24.5t49 110.5v331q-233 21 -323.5 118t-90.5 276q0 24 1 58t1 67q0 51 -14.5 123t-64.5 76l-7 45
q93 0 158 -25.5t98 -68.5q38 -51 51.5 -118.5t13.5 -104.5q0 -158 35.5 -243.5t141.5 -113.5v592q0 81 -50 103t-120 22v43h623v-43q-75 0 -122.5 -19t-47.5 -106v-592q106 26 141.5 112t35.5 245q0 37 14 104.5t51 118.5q35 45 98 69.5t158 24.5z" />
    <glyph glyph-name="CapitalOmega" unicode="&#x3a9;" horiz-adv-x="1532" 
d="M1487 350l-23 -350h-553q81 161 145 369.5t64 447.5q0 270 -87.5 388t-246.5 118q-154 0 -245.5 -121.5t-91.5 -384.5q0 -226 64.5 -446t139.5 -371h-583l-19 350h64q26 -94 79.5 -116.5t153.5 -22.5h103q-81 85 -192.5 265t-111.5 321q0 229 176.5 408t458.5 179
q279 0 460 -166.5t181 -420.5q0 -140 -102 -309.5t-199 -270.5h70q121 0 171.5 26.5t65.5 106.5h58z" />
    <glyph glyph-name="Alpha" unicode="&#x3b1;" horiz-adv-x="1290" 
d="M1272 891q-94 -148 -220 -337.5t-180 -262.5q-6 -15 -15 -56.5t-9 -82.5q0 -37 8 -59.5t39 -22.5q40 0 79.5 37t84.5 107q8 14 17.5 22t15.5 8t10 -6.5t4 -12.5q0 -47 -81 -141t-189 -94q-77 0 -115.5 30t-48.5 76h-2q-36 -38 -107.5 -74t-167.5 -36q-169 0 -257.5 94.5
t-88.5 245.5q0 219 180 419.5t416 200.5q154 0 216.5 -73.5t62.5 -204.5q0 -33 -3.5 -70t-9.5 -74q33 58 89.5 164.5t80.5 173.5zM735 646q0 144 -34.5 194.5t-90.5 50.5q-156 0 -233.5 -185.5t-77.5 -369.5q0 -160 34 -228.5t105 -68.5q69 0 136.5 53.5t87.5 91.5
q10 27 41.5 177.5t31.5 284.5z" />
    <glyph glyph-name="Beta" unicode="&#x3b2;" horiz-adv-x="1165" 
d="M1159 1118q0 -121 -68 -219t-190 -154v-1q59 -25 114.5 -99t55.5 -196q0 -186 -149 -337t-406 -151q-94 0 -159.5 32t-100.5 66q-17 -84 -82.5 -276.5t-97.5 -200.5h-275q47 60 101 146t78 172l313 1114q47 168 198.5 273.5t325.5 105.5q158 0 250 -73t92 -202zM950 1130
q0 99 -43 148t-100 49q-99 0 -168 -76.5t-119 -259.5l-184 -653q-7 -24 -10.5 -48t-3.5 -46q0 -76 42 -129.5t150 -53.5q151 0 233 112.5t82 295.5q0 86 -40.5 156.5t-106.5 70.5q-33 0 -45 -5t-47 -5q-31 0 -44.5 14.5t-13.5 32.5q0 33 29 64.5t70 31.5q18 0 51 -5t57 -5
q98 0 154.5 99.5t56.5 211.5z" />
    <glyph glyph-name="Gamma" unicode="&#x3b3;" horiz-adv-x="1206" 
d="M1180 911q-60 -108 -154 -257.5t-170 -245.5q-57 -72 -151 -167t-130 -157q-43 -74 -60.5 -161t-57.5 -177q-41 -91 -87.5 -128.5t-109.5 -37.5q-39 0 -69.5 19.5t-30.5 64.5q0 79 110.5 229.5t194.5 241.5q0 10 1 21.5t1 25.5q1 242 -37.5 390.5t-148.5 148.5
q-70 0 -112 -21.5t-73 -52.5q-19 -19 -37 -45.5t-32 -26.5q-11 0 -16 8.5t-5 16.5q0 88 121 198.5t213 110.5q129 0 205 -92t76 -215q0 -86 -13 -166.5t-21 -186.5q107 149 184 304.5t163 323.5z" />
    <glyph glyph-name="Delta" unicode="&#x3b4;" horiz-adv-x="1034" 
d="M1028 1243q0 -43 -18.5 -66.5t-67.5 -23.5q-43 0 -57.5 26t-30.5 60q-16 35 -47 61.5t-111 26.5q-45 0 -101 -41t-56 -121q0 -61 68.5 -116t121.5 -99q74 -61 132.5 -139t58.5 -217q0 -256 -157 -441.5t-407 -185.5q-143 0 -231 102t-88 263q0 203 122.5 347.5
t338.5 209.5q-33 41 -72 114.5t-39 141.5q0 115 104.5 183.5t233.5 68.5q119 0 211 -38t92 -116zM674 528q0 80 -28 155t-75 136q-109 0 -200.5 -146.5t-91.5 -348.5q0 -107 33.5 -203t93.5 -96q127 0 197.5 150t70.5 353z" />
    <glyph glyph-name="CurlyEpsilon" unicode="&#x3b5;" horiz-adv-x="1051" 
d="M1044 741q0 -96 -92 -96q-63 0 -105 59q-36 55 -71 110q-51 58 -133 58q-94 0 -146 -77q-44 -66 -44 -164q0 -90 129 -90q17 0 51 4t51 4q72 0 72 -64q0 -82 -74 -82q-31 0 -90 16.5t-88 16.5q-87 0 -142 -66q-51 -62 -51 -151q0 -174 160 -174q113 0 190 80
q19 20 105 149q53 80 106 80q37 0 64 -25t27 -61q0 -52 -50 -110q-149 -176 -464 -176q-161 0 -268 47q-146 66 -146 207q0 109 105 185q88 63 208 79q-145 51 -145 155q0 143 158 221q126 62 286 62q132 0 243 -38q154 -54 154 -159z" />
    <glyph glyph-name="Zeta" unicode="&#x3b6;" horiz-adv-x="928" 
d="M1053 1249q0 -50 -69.5 -113t-268.5 -94q-168 -188 -290 -418.5t-122 -353.5q0 -63 54.5 -80.5t119.5 -17.5q140 0 218.5 -55t78.5 -160q0 -172 -124.5 -277.5t-334.5 -105.5q-55 0 -98 26.5t-43 69.5q0 45 37 76t115 59q-2 -6 -3 -14t-1 -14q0 -49 32.5 -87t75.5 -38
q89 0 145 63.5t56 137.5q0 73 -72 87.5t-215 14.5q-156 0 -231.5 53.5t-75.5 155.5q0 92 68 217.5t167 259.5q101 137 198 247.5t142 164.5q-47 0 -113.5 19t-66.5 75q0 64 50 122t130 101h74v-2q-70 -35 -108.5 -86t-38.5 -90q0 -29 16 -45.5t59 -16.5q20 0 40 5t26 14
q61 88 148 133t151 45q55 0 64.5 -20.5t9.5 -57.5z" />
    <glyph glyph-name="Eta" unicode="&#x3b7;" horiz-adv-x="1106" 
d="M1067 737q0 -30 -7 -72t-18 -81l-206 -721q-18 -64 -28.5 -153t-10.5 -156h-269q14 95 39 211l25 116q8 43 106.5 379l98.5 336q12 42 23 81.5t11 80.5q0 39 -14 60.5t-65 21.5q-77 0 -141.5 -44.5t-84.5 -78.5l-62 -213.5t-94 -342.5l-15 -57.5t-25 -103.5h-285
q35 66 68.5 151.5t54.5 163.5l115 435q4 16 7 32.5t3 30.5q0 21 -7 31t-28 10q-39 0 -57.5 -17.5t-30.5 -41.5q-9 -18 -17 -38t-30 -20q-6 0 -11.5 7.5t-5.5 17.5q0 43 53.5 113.5t153.5 70.5q110 0 159 -38t54 -105q47 35 142.5 86t187.5 51q111 0 161 -54.5t50 -148.5z
" />
    <glyph glyph-name="Theta" unicode="&#x3b8;" horiz-adv-x="981" 
d="M1010 999q0 -323 -173 -674.5t-464 -351.5q-143 0 -228.5 123.5t-85.5 306.5q0 349 202.5 666t459.5 317q140 0 214.5 -105.5t74.5 -281.5zM807 1180q0 73 -20.5 116t-67.5 43q-102 0 -188.5 -172t-161.5 -452h358q35 145 57.5 251.5t22.5 213.5zM698 612h-358
q-18 -75 -36.5 -192t-18.5 -189q0 -90 25.5 -150.5t90.5 -60.5q91 0 163.5 157.5t133.5 434.5z" />
    <glyph glyph-name="Iota" unicode="&#x3b9;" horiz-adv-x="629" 
d="M563 266q0 -56 -90.5 -166t-204.5 -110q-121 0 -172 53t-51 135q0 29 5.5 54.5t15.5 60.5l178 612l258 41l-203 -702q-4 -14 -9 -35t-5 -35q0 -29 10 -44t53 -15q39 0 70 22.5t57 61.5q20 31 40 57.5t36 26.5q6 0 9 -5.5t3 -11.5z" />
    <glyph glyph-name="Kappa" unicode="&#x3ba;" horiz-adv-x="973" 
d="M979 866q0 -53 -43 -88t-131 -35q-19 0 -44.5 -30.5t-55.5 -63.5q-29 -32 -71 -81.5t-77 -75.5l197 -349q26 -45 45.5 -66.5t99.5 -21.5l-16 -41q-17 -6 -58 -19t-104 -13q-49 0 -100.5 21t-81.5 77l-160 299l-115 -379h-250q70 172 140.5 443.5t119.5 445.5l258 41
l-122 -426q77 35 139.5 107.5t107.5 140.5q41 62 110 122t130 60q55 0 68.5 -23.5t13.5 -44.5z" />
    <glyph glyph-name="Lambda" unicode="&#x3bb;" horiz-adv-x="1071" 
d="M1065 158q0 -40 -65 -109t-142 -69q-133 0 -201.5 100t-97.5 225q-27 117 -31 242t-6 158q-63 -89 -163.5 -287.5t-100.5 -343.5q0 -21 2 -38.5t6 -35.5h-233q10 74 92 199.5t154 240.5q83 133 153 246t70 213q0 108 -47.5 270t-145.5 162q-20 0 -52 -12l-32 -12l-28 28
l50 31t124 31q206 0 296.5 -210t90.5 -428q0 -226 33 -447.5t129 -221.5q35 0 60 18.5t31 28.5q7 12 20.5 21.5t25.5 9.5q2 0 5 -3t3 -7z" />
    <glyph glyph-name="Mu" unicode="&#x3bc;" horiz-adv-x="1165" 
d="M1083 936l-147 -604q-11 -47 -26 -117t-15 -102q0 -25 6 -38.5t21 -13.5q43 0 74 63.5t46 63.5q7 0 12 -8t5 -22q0 -44 -51 -113.5t-156 -69.5q-91 0 -143 45t-52 103q-32 -40 -105.5 -93t-148.5 -53q-38 0 -73.5 14t-59.5 50h-2l-118 -467h-250q118 332 208.5 689.5
t159.5 627.5l226 39q-48 -168 -103 -375t-55 -313q0 -72 24.5 -110t90.5 -38q55 0 114.5 40t96.5 89l172 670z" />
    <glyph glyph-name="Nu" unicode="&#x3bd;" horiz-adv-x="969" 
d="M973 866q0 -76 -103.5 -218.5t-201.5 -264.5q-131 -162 -214 -267.5t-110 -131.5h-108q10 47 27.5 184t17.5 250q0 220 -61.5 321t-172.5 101l14 45q91 8 147 18t140 49q68 -69 109 -191.5t41 -301.5q0 -21 -3 -80.5t-8 -89.5q81 86 163.5 207t82.5 194q0 168 24.5 218
t133.5 50q50 0 66 -29.5t16 -62.5z" />
    <glyph glyph-name="Xi" unicode="&#x3be;" horiz-adv-x="977" 
d="M1036 1227q0 -70 -42 -113t-144 -43q-41 0 -87 7t-112 28q-74 -38 -132 -115t-58 -174q0 -39 18.5 -81t83.5 -42q76 0 139.5 27t122.5 27q58 0 75 -19.5t17 -56.5q0 -70 -46 -90.5t-97 -20.5q-22 0 -69.5 17.5t-129.5 17.5q-109 0 -207 -97.5t-98 -217.5q0 -58 40 -91.5
t143 -33.5q134 0 210 -46t76 -149q0 -188 -125 -286.5t-346 -98.5q-51 0 -90 28t-39 68q0 43 34 66.5t106 56.5v-8q0 -63 23.5 -101t66.5 -38q105 0 170 63t65 160q0 41 -54 62.5t-210 21.5q-178 0 -266 72t-88 206q0 149 132.5 267.5t282.5 136.5q-79 8 -133.5 55
t-54.5 125q0 107 106.5 197t249.5 133q-32 16 -52.5 31.5t-20.5 76.5q0 38 22 75.5t57 60.5h121q-77 -32 -95.5 -69.5t-18.5 -55.5q0 -46 25 -63t42 -17q26 0 118.5 63.5t182.5 63.5q49 0 67.5 -28t18.5 -58z" />
    <glyph glyph-name="Omicron" unicode="&#x3bf;" horiz-adv-x="1061" 
d="M1012 612q0 -236 -174 -433t-441 -197q-169 0 -261.5 94t-92.5 246q0 245 183.5 431.5t428.5 186.5q155 0 256 -95.5t101 -232.5zM772 606q0 146 -42.5 211.5t-104.5 65.5q-129 0 -228.5 -165t-99.5 -411q0 -138 36.5 -201t108.5 -63q129 0 229.5 163t100.5 400z" />
    <glyph glyph-name="Pi" unicode="&#x3c0;" horiz-adv-x="1139" 
d="M1133 917l-37 -169h-224l-104 -402q-4 -14 -5 -25.5t-1 -19.5q0 -31 23.5 -49.5t52.5 -36.5q14 -8 44.5 -35t30.5 -92q0 -64 -40.5 -91.5t-102.5 -27.5q-94 0 -142 60t-48 145q0 41 9 94t122 480h-146l-151 -429q-75 -214 -141 -283t-150 -69q-43 0 -80 20t-37 72
q0 71 40 108t71 54q35 21 81.5 54t59.5 71l139 402h-88q-67 0 -139 -36t-100 -85h-41q44 110 144.5 200.5t225.5 90.5z" />
    <glyph glyph-name="Rho" unicode="&#x3c1;" horiz-adv-x="1124" 
d="M1073 598q0 -232 -172 -425t-432 -193q-86 0 -137 24.5l-51 24.5l-129 -457h-281q96 233 139.5 403t98.5 408q59 256 218.5 406.5t389.5 150.5q166 0 261 -98t95 -244zM836 614q0 144 -38 207.5t-114 63.5q-145 0 -236.5 -191t-91.5 -401q0 -109 42.5 -180.5t109.5 -71.5
q152 0 240 182t88 391z" />
    <glyph glyph-name="FinalSigma" unicode="&#x3c2;" horiz-adv-x="1051" 
d="M997 762q0 -68 -43 -97.5t-100 -29.5q-49 0 -83 37t-58 69q-35 47 -69 78t-112 31q-118 0 -179.5 -104.5t-61.5 -251.5q0 -95 92.5 -151.5t202.5 -98.5q139 -52 217 -128.5t78 -181.5q0 -98 -49 -159t-115 -90q-70 -31 -137.5 -40.5t-118.5 -9.5q-49 0 -77 6.5t-73 20.5
l15 39q36 -6 50.5 -9t61.5 -3q104 0 154.5 41t50.5 123q0 59 -102 109.5t-195 86.5q-161 63 -229 141t-68 162q0 284 176 434t482 150q104 0 197 -42.5t93 -131.5z" />
    <glyph glyph-name="Sigma" unicode="&#x3c3;" horiz-adv-x="1436" 
d="M1429 942l-53 -190h-383l12.5 -49.5t12.5 -102.5q0 -242 -182 -430t-424 -188q-176 0 -268.5 92t-92.5 256q0 256 189.5 434t437.5 178h751zM780 598q0 156 -43 218.5t-112 62.5q-132 0 -229 -163.5t-97 -408.5q0 -153 39 -211.5t102 -58.5q147 0 243.5 166t96.5 395z
" />
    <glyph glyph-name="Tau" unicode="&#x3c4;" horiz-adv-x="1049" 
d="M1042 920l-65 -197h-359l-120 -379q-4 -11 -6.5 -25t-2.5 -22q0 -35 35 -58.5t58 -52.5q12 -16 20 -40.5t8 -55.5q0 -50 -36 -85.5t-113 -35.5q-79 0 -123.5 50.5t-44.5 144.5q0 71 83 315l83 244h-113q-110 0 -179 -10.5t-120 -87.5h-41q65 155 167.5 225t195.5 70h673z
" />
    <glyph glyph-name="Upsilon" unicode="&#x3c5;" horiz-adv-x="1135" 
d="M1094 805q0 -220 -184 -519.5t-513 -299.5q-139 0 -212.5 73.5t-73.5 165.5q0 97 28 169t54 130q32 72 55.5 121t23.5 113q0 24 -16 42.5t-33 18.5q-45 0 -79.5 -24.5t-63.5 -67.5l-27 25q50 90 111.5 138t144.5 48q109 0 154 -52t45 -130q0 -76 -23.5 -144.5
t-56.5 -134.5q-26 -52 -54 -124t-28 -130q0 -64 31.5 -108.5t93.5 -44.5q156 0 259.5 173t103.5 371q0 49 -20.5 93t-41.5 59q88 69 166.5 126.5t93.5 57.5q35 0 48.5 -58t13.5 -87z" />
    <glyph glyph-name="CurlyPhi" unicode="&#x3c6;" horiz-adv-x="1239" 
d="M1188 625q0 -265 -174.5 -458t-476.5 -196l-101 -387h-239q32 72 79.5 159t88.5 232q-156 24 -238 115t-82 227q0 125 39 230.5t106 197.5q58 79 112 117.5t67 38.5q8 0 13 -3t5 -7q0 -14 -26.5 -51t-59.5 -97q-31 -56 -59.5 -145.5t-28.5 -196.5q0 -85 60.5 -135.5
t156.5 -50.5q115 410 204 560.5t271 150.5q145 0 214 -92t69 -209zM1047 539q0 114 -45.5 158t-96.5 44q-99 0 -175 -134.5t-132 -391.5h16q182 0 307.5 104t125.5 220z" />
    <glyph glyph-name="Chi" unicode="&#x3c7;" horiz-adv-x="1239" 
d="M1233 928q-53 -88 -195.5 -249t-419.5 -407l68 -438q4 -29 19.5 -83t48.5 -54q36 0 69 35t51 58q4 6 12.5 11.5t14.5 5.5t9 -5t3 -11q0 -49 -83 -135t-191 -86q-76 0 -124 54t-66 175l-46 301q-184 -160 -331.5 -320.5t-182.5 -203.5l-135 -37q64 103 196 257.5
t435 424.5l-82 510q-6 37 -17.5 80t-48.5 43q-23 0 -37 -3t-44 -11l-13 34q39 11 135 43.5t115 32.5q72 0 103.5 -47t52.5 -186l49 -322q176 156 334 320t180 192z" />
    <glyph glyph-name="Psi" unicode="&#x3c8;" horiz-adv-x="1327" 
d="M1321 938l-8 -45q-60 -2 -100.5 -73t-67.5 -156q-27 -86 -42 -168t-22 -107q-54 -190 -190.5 -290t-337.5 -105l-143 -422h-131l108 424q-146 24 -238 103.5t-92 219.5q0 81 52.5 234.5t52.5 243.5q0 49 -12.5 69.5t-47.5 30.5l11 39q147 0 201.5 -50t54.5 -163
q0 -88 -45 -232t-45 -210q0 -78 37.5 -135.5t89.5 -63.5l305 1229l260 43l-396 -1270q80 6 132.5 56t80.5 120q27 68 47.5 153.5t34.5 133.5q66 226 163.5 308.5t271.5 82.5h16z" />
    <glyph glyph-name="Omega" unicode="&#x3c9;" horiz-adv-x="1497" 
d="M1448 522q0 -194 -166 -364t-385 -170q-78 0 -146.5 43t-68.5 127h-2q-47 -82 -132 -126t-181 -44q-142 0 -231 84t-89 227q0 180 141 354.5t310 266.5h116q-118 -111 -215.5 -285t-97.5 -342q0 -95 32 -155t93 -60q86 0 146 58t98 239q10 48 32 172.5t58 124.5h98
q16 0 24.5 -7.5t8.5 -25.5q0 -35 -60.5 -178t-60.5 -250q0 -53 28.5 -95t88.5 -42q130 0 238 189t108 360q0 83 -21.5 163.5t-58.5 133.5h98q88 -66 142.5 -176.5t54.5 -221.5z" />
    <glyph glyph-name="CurlyTheta" unicode="&#x3d1;" horiz-adv-x="1116" 
d="M1106 555q0 -16 -3 -33.5t-9 -32.5l-127 66q-57 -216 -210.5 -400t-367.5 -184q-142 0 -236 129.5t-94 313.5q0 120 37 228t51 122l304 63q-72 -105 -122 -256t-50 -268q0 -110 38.5 -191t120.5 -81q79 0 154.5 134.5t150.5 493.5q-106 66 -193 165.5t-87 224.5
q0 159 83 247t218 88q144 0 214.5 -107.5t70.5 -281.5q0 -59 -17.5 -161.5t-25.5 -135.5q51 -22 75.5 -60t24.5 -83zM827 1147q0 76 -18 130t-68 54q-73 0 -116 -59.5t-43 -179.5q0 -93 63 -174t135 -121q11 43 29 138t18 212z" />
    <glyph glyph-name="CurlyCapitalUpsilon" unicode="&#x3d2;" horiz-adv-x="1374" 
d="M1335 1176q0 -75 -45 -141t-129 -66q-61 0 -99 37.5t-38 136.5h10q47 0 73 23t26 69q0 29 -18.5 44t-61.5 15q-114 0 -190.5 -198t-76.5 -488v-450q0 -65 39.5 -93t139.5 -28v-37h-635v37q84 0 130 24.5t46 100.5q0 61 1 225l1 164q1 403 -107.5 600t-377.5 197v28
q47 13 75.5 18t53.5 5q217 0 344 -123t200 -344q23 92 47.5 163.5t73.5 151.5q43 70 115 113t172 43q92 0 161.5 -53.5t69.5 -173.5z" />
    <glyph glyph-name="Phi" unicode="&#x3d5;" 
d="M1157 616q0 -229 -176 -416.5t-430 -215.5l-125 -392h-133l94 392q-184 24 -261 118.5t-77 212.5q0 238 168 419t408 216l82 357l274 47l-125 -406q143 -31 222 -123t79 -209zM606 866q-112 -45 -207.5 -193t-95.5 -362q0 -83 29.5 -146t75.5 -97zM911 631
q0 81 -24.5 131.5t-63.5 83.5l-248 -793q128 44 232 186.5t104 391.5z" />
    <glyph glyph-name="CurlyPi" unicode="&#x3d6;" horiz-adv-x="1749" 
d="M1743 920l-53 -187h-244q24 -47 40.5 -96.5t16.5 -114.5q0 -200 -142.5 -367t-352.5 -167q-70 0 -132.5 43t-62.5 127h-2q-43 -82 -121 -126t-164 -44q-146 0 -225.5 103.5t-79.5 222.5q0 102 77.5 226t166.5 193h-125q-67 0 -133.5 -56.5t-114.5 -148.5h-59
q44 155 149 273.5t262 118.5h1299zM1309 623q0 28 -2 60t-7 50h-692q-59 -94 -109 -208.5t-50 -231.5q0 -88 37.5 -151.5t97.5 -63.5q89 0 141 69t76 195q14 82 31.5 173t48.5 91l77 2q13 0 25 -4t12 -16q0 -42 -50 -148.5t-50 -222.5q0 -53 24.5 -98t77.5 -45
q128 0 220 185.5t92 363.5z" />
    <glyph glyph-name="CapitalStigma" unicode="&#x3da;" horiz-adv-x="1372" 
d="M1335 1380l-61 -256h-494q-272 0 -401 -178q-105 -146 -105 -391q0 -139 166 -229l306 -142q165 -95 165 -245q0 -178 -163 -254q-105 -50 -256 -50q-77 0 -160 27l14 55q90 -16 137 -16q209 0 209 143q0 84 -164 150q-237 94 -306 148q-165 128 -165 364q0 165 110 364
q119 216 308 352q220 158 477 158h383z" />
    <glyph glyph-name="Stigma" unicode="&#x3db;" horiz-adv-x="1163" 
d="M1157 924l-57 -230h-557q-332 0 -332 -202q0 -97 174 -174l322 -140q174 -98 174 -244q0 -175 -163 -251q-107 -50 -257 -50q-44 0 -148 23l15 49q56 -10 141 -10q195 0 195 137q0 89 -160 160q-148 65 -296 129q-159 92 -159 231q0 253 139 398q167 174 519 174h450z
" />
    <glyph glyph-name="CapitalDigamma" unicode="&#x3dc;" horiz-adv-x="1206" 
d="M1155 1044h-59q-48 199 -228 199h-329q-52 0 -52 -39v-448h478v-295h-62q-10 59 -48 115q-61 88 -157 88h-129q-46 0 -64 -13.5t-18 -54.5v-444q0 -109 152 -109v-43h-582v43q84 0 111 16q37 22 37 93v1048q0 113 -148 113v43h1098v-312z" />
    <glyph glyph-name="Digamma" unicode="&#x3dd;" horiz-adv-x="1004" 
d="M975 918l-19 -78q-73 10 -133 10q-170 0 -285 -107q-89 -81 -108 -174l416 -20l-17 -105l-440 -16l-248 -842h-190l211 959q24 112 134 217q183 176 505 176q80 0 174 -20z" />
    <glyph glyph-name="CapitalKoppa" unicode="&#x3de;" horiz-adv-x="1305" 
d="M1257 866q0 -183 -126 -317t-334 -174v-375h-287v373q-212 38 -339.5 175.5t-127.5 323.5q0 227 169.5 374t444.5 147q269 0 439 -157q161 -149 161 -370zM989 874q0 189 -70 312q-87 153 -262 153q-179 0 -271 -149q-75 -122 -75 -305q0 -374 199 -447v279h287v-260
q192 75 192 417z" />
    <glyph glyph-name="Koppa" unicode="&#x3df;" horiz-adv-x="1014" 
d="M975 625q0 -172 -135 -303q-125 -122 -308 -156l-61 -268h-235l61 270q-122 27 -195 106q-77 84 -77 203q0 206 177 341q166 126 386 126q163 0 269 -79q118 -87 118 -240zM748 668q0 92 -41 158q-46 75 -127 75q-153 0 -247 -163q-81 -141 -81 -316q0 -89 39 -145
q44 -64 127 -64q145 0 243 155q87 138 87 300z" />
    <glyph glyph-name="CapitalSampi" unicode="&#x3e0;" horiz-adv-x="1470" 
d="M1413 674q0 -297 -200 -495q-207 -206 -537 -206l-29 68q257 0 374 225q89 172 89 461q-153 -176 -305 -352q-196 -234 -264 -375h-183l736 850q0 35 -11 49q-202 -187 -485 -492q-301 -324 -342 -407h-217l1008 1008q-60 122 -101 170q-95 110 -233 110
q-157 0 -259.5 -92.5t-168.5 -292.5l-119 258q216 225 549 225q316 0 512 -211q186 -202 186 -501z" />
    <glyph glyph-name="Sampi" unicode="&#x3e1;" horiz-adv-x="901" 
d="M844 625q0 -236 -212.5 -429t-492.5 -216l-8 77q214 5 336 141q109 121 119 312l-467 -336l-13 105l474 327q-2 20 -17 78q-64 -49 -467 -319l-8 79l451 306q-40 108 -174 108q-156 0 -302 -178q2 4 -16 160q71 42 179.5 71t195.5 29q191 0 312 -102q110 -93 110 -213z
" />
    <glyph glyph-name="CurlyKappa" unicode="&#x3f0;" horiz-adv-x="1032" 
d="M1020 926l-12 -95q-145 0 -211 -55q-87 -73 -158 -309l76 -322q12 -53 39 -53q40 0 83.5 64.5t57.5 64.5q13 0 11 -20q-1 -22 -19 -51q-38 -62 -97 -114q-67 -59 -114 -59q-97 0 -158 141q-21 48 -63 212q-100 -178 -151 -236q-103 -117 -241 -117l-20 99q145 8 240 108
q56 59 151 236l-63 278q-27 119 -70 119q-25 0 -111 -26l-14 40q65 21 129 42q110 36 127 36q82 0 134 -129q16 -42 50 -190q90 173 146 232q100 104 258 104z" />
    <glyph glyph-name="CurlyRho" unicode="&#x3f1;" horiz-adv-x="1104" 
d="M1053 592q0 -227 -170 -413q-184 -202 -447 -202q-249 0 -309 263h-2q-39 -213 -39 -293q0 -137 172 -137q27 0 89 3t93 3q183 0 255 -43q61 -37 61 -121q0 -16 -17 -64h-39q0 21 -53 34q-39 9 -67 9q-21 0 -98 -4t-124 -4q-185 0 -270 44q-106 54 -106 194
q0 370 142 671q194 408 574 408q158 0 256.5 -97.5t98.5 -250.5zM831 596q0 289 -165 289q-147 0 -244 -201q-84 -173 -84 -371q0 -272 156 -272q137 0 240 180q97 171 97 375z" />
    <glyph glyph-name="Epsilon" unicode="&#x3f5;" horiz-adv-x="842" 
d="M836 915l-25 -84q-18 5 -36.5 7t-33.5 2q-149 0 -247.5 -57.5t-147.5 -207.5l434 -20l-16 -115l-445 -22q0 -12 -1 -24.5t-1 -24.5q0 -111 71 -193t185 -82q54 0 114.5 7.5t111.5 17.5l-8 -86q-82 -19 -140.5 -29t-134.5 -10q-222 0 -343.5 108t-121.5 304
q0 249 171 390.5t472 141.5q43 0 74 -7t68 -16z" />
    <glyph glyph-name="OpenCurlyQuote" unicode="&#x2018;" horiz-adv-x="774" 
d="M569 1010q0 -64 -56 -106t-122 -42q-88 0 -147.5 52.5t-59.5 138.5q0 104 103 204q90 91 198 127l25 -49q-57 -20 -100 -73.5t-43 -110.5q0 -25 8 -25q12 0 37.5 8.5t38.5 8.5q53 0 85.5 -39t32.5 -94z" />
    <glyph glyph-name="CloseCurlyQuote" unicode="&#x2019;" horiz-adv-x="774" 
d="M590 1194q0 -104 -103 -205q-90 -90 -198 -127l-25 49q55 21 99.5 75t44.5 110q0 22 -9 22q-12 0 -37.5 -7t-37.5 -7q-54 0 -86.5 39t-32.5 94q0 66 55 106.5t123 40.5q88 0 147.5 -52t59.5 -138z" />
    <glyph glyph-name="OpenCurlyDoubleQuote" unicode="&#x201c;" horiz-adv-x="1073" 
d="M991 1010q0 -64 -56 -106t-122 -42q-88 0 -147.5 52.5t-59.5 138.5q0 104 103 204q90 91 198 127l25 -49q-58 -20 -101 -73.5t-43 -110.5q0 -25 9 -25q12 0 37.5 8.5t37.5 8.5q54 0 86.5 -39t32.5 -94zM436 1010q0 -64 -56 -106t-122 -42q-88 0 -147.5 52.5t-59.5 138.5
q0 104 103 204q90 91 198 127l25 -49q-58 -20 -101 -73.5t-43 -110.5q0 -25 9 -25q12 0 37.5 8.5t37.5 8.5q54 0 86.5 -39t32.5 -94z" />
    <glyph glyph-name="CloseCurlyDoubleQuote" unicode="&#x201d;" horiz-adv-x="1073" 
d="M1022 1194q0 -104 -102 -205q-91 -90 -199 -127l-25 49q56 21 100 75t44 110q0 22 -9 22q-12 0 -37.5 -7t-37.5 -7q-54 0 -86.5 39t-32.5 94q0 66 55.5 106.5t122.5 40.5q88 0 147.5 -52t59.5 -138zM467 1194q0 -104 -102 -205q-91 -90 -199 -127l-25 49q56 21 100 75
t44 110q0 22 -9 22q-12 0 -37.5 -7t-37.5 -7q-54 0 -86.5 39t-32.5 94q0 66 55.5 106.5t122.5 40.5q88 0 147.5 -52t59.5 -138z" />
    <glyph glyph-name="Dagger" unicode="&#x2020;" horiz-adv-x="1190" 
d="M1137 891q0 -54 -36 -91.5t-95 -37.5q-41 0 -174.5 46t-194.5 46q0 -177 106 -352q-116 -198 -116 -807h-74q0 616 -117 807q117 171 117 352q-63 0 -191.5 -38t-177.5 -38q-58 0 -95.5 32.5t-37.5 88.5q0 54 36 90.5t97 36.5q41 0 173.5 -38t195.5 -38q0 60 -41 176
t-41 160q0 55 35 91t92 36t94 -33q39 -36 39 -94q0 -35 -47 -155.5t-47 -182.5q61 0 190 32t179 32q56 0 93.5 -33.5t37.5 -87.5z" />
    <glyph glyph-name="DoubleDagger" unicode="&#x2021;" horiz-adv-x="1051" 
d="M985 190q0 -54 -35 -89q-36 -38 -96 -38q-27 0 -130 36t-159 36q0 -56 44 -159t44 -140q0 -55 -34.5 -91t-92.5 -36q-57 0 -95 34.5t-38 92.5q0 31 42 137.5t42 161.5q-55 0 -151 -34.5t-129 -34.5q-58 0 -96 33t-38 87q0 55 36.5 91t97.5 36q25 0 124 -45t156 -45
q0 172 -112 318q120 140 120 317q-52 0 -153.5 -44t-134.5 -44q-58 0 -96 33t-38 88q0 54 36.5 90.5t97.5 36.5q26 0 128 -37t158 -37q0 57 -44 161t-44 140q0 55 35 91t92 36t94 -33q39 -36 39 -94q0 -31 -44 -138.5t-44 -162.5q54 0 153 36t134 36q56 0 93.5 -33.5
t37.5 -87.5t-35.5 -90.5t-95.5 -36.5q-26 0 -127 45t-160 45q0 -173 117 -317q-119 -138 -119 -318q53 0 153.5 44t135.5 44q56 0 93.5 -33t37.5 -88z" />
    <glyph glyph-name="Bullet" unicode="&#x2022;" horiz-adv-x="725" 
d="M659 614q0 -107 -86.5 -181.5t-210.5 -74.5t-210 74.5t-86 181.5t86 181.5t210 74.5q123 0 210 -75t87 -181z" />
    <glyph glyph-name="Ellipsis" unicode="&#x2026;" horiz-adv-x="2048" 
d="M1866 89q0 -66 -46.5 -112.5t-112.5 -46.5t-112.5 46.5t-46.5 112.5t46.5 112.5t112.5 46.5t112.5 -46.5t46.5 -112.5zM1182 89q0 -66 -46.5 -112.5t-112.5 -46.5t-112.5 46.5t-46.5 112.5t46.5 112.5t112.5 46.5t112.5 -46.5t46.5 -112.5zM500 89q0 -66 -46.5 -112.5
t-112.5 -46.5t-112.5 46.5t-46.5 112.5t46.5 112.5t112.5 46.5t112.5 -46.5t46.5 -112.5z" />
    <glyph glyph-name="Prime" unicode="&#x2032;" horiz-adv-x="764" 
d="M662 817q0 -43 -23.5 -86.5t-40.5 -68.5l-324 -492q-21 -30 -47.5 -59t-60.5 -29q-37 0 -50.5 27.5t-13.5 42.5q0 18 8.5 39t14.5 38l203 588q15 44 59.5 95t101.5 51q56 0 114.5 -40t58.5 -106z" />
    <glyph glyph-name="DoublePrime" unicode="&#x2033;" horiz-adv-x="1333" 
d="M662 817q0 -43 -21.5 -82.5t-42.5 -72.5l-324 -492q-20 -30 -42.5 -59t-65.5 -29q-25 0 -44.5 20.5t-19.5 49.5q0 20 8 39t15 38l203 588q18 52 59 99t102 47q60 0 116.5 -41t56.5 -105zM1231 813q0 -45 -27 -89t-49 -73l-373 -491q-20 -26 -45.5 -53t-68.5 -27
q-29 0 -43.5 23.5t-14.5 50.5q0 6 22 63t30 76l233 532q23 52 67 94t95 42q59 0 116.5 -42t57.5 -106z" />
    <glyph glyph-name="ReversePrime" unicode="&#x2035;" horiz-adv-x="764" 
d="M662 152q0 -70 -64 -70q-51 0 -109 88l-323 492q-64 96 -64 155q0 62 58 106q53 40 114 40q112 0 162 -146l203 -588q23 -65 23 -77z" />
    <glyph glyph-name="ReverseDoublePrime" unicode="&#x2036;" horiz-adv-x="1333" 
d="M1231 152q0 -70 -64 -70q-50 0 -108 88l-324 492q-63 96 -63 155q0 62 56 105q52 41 116 41q111 0 162 -146l202 -588q23 -65 23 -77zM723 154q0 -74 -57 -74q-55 0 -115 80l-373 491q-76 100 -76 162t57 106q54 42 117 42q102 0 162 -136q285 -638 285 -671z" />
    <glyph glyph-name="SkeletonIndicator" unicode="&#x2043;" horiz-adv-x="762" 
d="M674 256h-586v389h586v-389z" />
    <glyph glyph-name="Euro" unicode="&#x20ac;" horiz-adv-x="1024" 
d="M991 264q-86 -151 -162 -213q-98 -80 -249 -80q-236 0 -371 191q-113 162 -131 413h-101l23 78h74q0 56 2 84h-99l23 78h84q35 236 182 395q160 174 389 174q93 0 162 -22q47 -16 148 -66v-299h-39q-8 127 -66 207q-65 99 -184 99q-236 0 -285 -488h481l-22 -78h-465
q-2 -28 -2 -84h444l-22 -78h-422q20 -509 256 -509q111 0 186 69q45 41 119 164z" />
    <glyph glyph-name="Rupee" unicode="&#x20b9;" horiz-adv-x="1024" 
d="M782 1106h197l-82 -137h-111q-10 -86 -59 -156q-20 -31 -51 -60.5t-76 -55t-103.5 -44t-134.5 -24.5l510 -658h-299l-487 629v129h123q80 2 147 27q29 10 56.5 27.5t51 43t40 60.5t22.5 82h-487l82 137h387q-12 37 -49 68q-33 24 -94.5 45.5t-165.5 21.5h-164l82 135h864
l-82 -135h-178q16 -29 31 -53q10 -23 20 -45.5t10 -36.5z" />
    <glyph glyph-name="ScriptG" unicode="&#x210a;" horiz-adv-x="1200" 
d="M1178 838q-41 -19 -82 -72q-33 -43 -107 -356q-82 -344 -108 -410q-76 -184 -310 -326q-225 -137 -430 -137q-90 0 -112 37q-15 23 -15 119q0 59 6 119l35 4q2 -154 283 -154q248 0 338 373l63 266q-73 -65 -227 -195.5t-248 -130.5q-65 0 -119 41q-59 43 -59 107
q0 213 129 429t317 316q111 60 318 60q68 0 173 -28t155 -62zM877 778q-80 58 -150 58q-184 0 -299 -242q-92 -195 -92 -406q0 -69 33 -69q90 0 239 157q269 283 269 502z" />
    <glyph glyph-name="ScriptCapitalH" unicode="&#x210b;" horiz-adv-x="1966" 
d="M2163 1475q-131 -84 -207 -261q-88 -204 -184 -645q-39 -180 -39 -327q0 -52 28.5 -87.5t77.5 -35.5q25 0 41 8l6 -10q-47 -49 -157.5 -93t-182.5 -44q-49 0 -78 98q-22 76 -22 141q0 164 104 543q-114 -82 -176 -82q-43 0 -131 10t-131 10q-199 0 -268 -120
q-33 -56 -64 -265q-26 -182 -108 -260q-49 -47 -176 -86q-117 -37 -195 -37q-41 0 -59 21q221 24 528 1360q-8 8 -22 8q-50 0 -127 -27q-392 -135 -392 -434q0 -104 45 -168q-81 6 -158 88t-77 164q0 39 70 107q49 47 104 88q168 121 400.5 193.5t443.5 72.5q33 0 43 -23
q-72 -229 -217 -686q108 121 241 121q54 0 158 -10t158 -10q96 0 135 59q12 18 29 100q12 64 59 199q53 154 78 182q43 49 190 97q133 43 217 47z" />
    <glyph glyph-name="GothicCapitalH" unicode="&#x210c;" horiz-adv-x="1645" 
d="M1593 168q-7 -44 -125 -110q-105 -58 -165 -70q-53 20 -132 91q-88 78 -88 124v495q-91 -100 -237 -100q-28 0 -85 5t-85 5q-54 0 -94 -21q-50 -26 -50 -75v-221q-37 -41 -137 -92q93 -64 166 -64q58 0 119 39q-22 -63 -93 -138q-78 -83 -136 -83q-46 0 -154 49t-164 49
q-16 0 -31 -6q0 39 70 92.5t70 126.5v826q0 44 -18 96q-23 65 -58 65q-9 0 -78 -16l-16 22q57 30 175 78q138 56 171 56q54 0 90 -131q29 -103 29 -179v-399q50 98 188 98q32 0 95 -5t95 -5q112 0 170 57v330q37 24 109 74q-115 74 -133 74q-21 0 -125 -21l-18 21
q128 114 208 114q61 0 175.5 -36t175.5 -36q14 0 28 1q0 -68 -127 -131v-943q0 -34 59.5 -82.5t94.5 -48.5q28 0 61 25z" />
    <glyph glyph-name="HBar" unicode="&#x210f;" horiz-adv-x="1137" 
d="M1090 209q0 -57 -85 -137q-100 -95 -221 -95q-153 0 -153 148q0 26 86 295t86 346q0 41 -21 41q-106 0 -250 -231q-120 -191 -165 -349l-66 -227h-235l258 885l-226 -76l-43 102l307 105q28 94 56 190q12 46 12 70q0 12 -4 16q-10 8 -84 8h-18v48l297 51q11 2 20 2
q41 0 41 -58q0 -33 -25 -118l-34 -121l235 80l45 -103l-317 -108l-111 -379q213 346 395 346q75 0 118.5 -45.5t43.5 -122.5q0 -17 -80 -304t-80 -339q0 -43 23 -43q35 0 99.5 70.5t78.5 70.5q17 0 17 -18z" />
    <glyph glyph-name="ScriptCapitalI" unicode="&#x2110;" horiz-adv-x="1196" 
d="M1421 1376q0 -112 -170 -112q-28 0 -84.5 5t-85.5 5q-61 0 -129 -236q-41 -153 -125 -465q-73 -272 -125 -333q-26 -33 -96 -64q-94 -43 -108 -51q166 -19 219 -19q172 0 221 91q8 -11 8 -27q0 -80 -92 -137q-80 -51 -166 -51q-84 0 -249 17t-249 17q-120 0 -129 -67
q-24 14 -24 41q0 141 287 141q110 0 184 260q43 174 143 518q97 295 299 373q-76 6 -153 6q-103 0 -191 -18q-133 -29 -139 -84q-18 24 -18 55q0 152 348 152q86 0 258 -14.5t258 -14.5q90 0 92 63q16 -22 16 -51z" />
    <glyph glyph-name="GothicCapitalI" unicode="&#x2111;" horiz-adv-x="727" 
d="M672 154q-43 -92 -116.5 -146.5t-156.5 -54.5q-55 0 -151 52t-144 77q0 15 32.5 38t41.5 36q24 34 29.5 71t5.5 82v680q0 27 -2 82t-12 86q33 11 90 28t98 34q-35 32 -89 55.5t-103 23.5q-35 0 -73 -6t-63 -12l-14 23q37 22 111.5 73t107.5 51q26 0 173 -43t225 -43
q-7 -24 -31.5 -39.5t-50.5 -29.5t-47 -48t-21 -77l-4 -801q0 -47 -35.5 -84.5t-83.5 -56.5l72.5 -39t93.5 -39q20 0 60 8t57 19z" />
    <glyph glyph-name="ScriptCapitalL" unicode="&#x2112;" horiz-adv-x="1638" 
d="M1612 137q-51 -151 -121 -223q-88 -90 -231 -90q-187 0 -546.5 94t-545.5 94q-68 0 -133 -61l-10 14q112 211 206 211q29 0 85.5 -11t84.5 -11q58 0 123 116q62 107 76 170q31 142 90 426q55 258 154 381q133 164 389 164q104 0 217 -43q141 -53 141 -141
q0 -45 -114 -107q-45 -24 -95 -43v23q50 49 50 108q0 135 -168 135q-174 0 -230 -303q-10 -67 -33 -198q-36 -211 -141 -400q-115 -206 -278 -315q264 -70 333 -84q197 -43 338 -43q205 0 349 158z" />
    <glyph glyph-name="ScriptL" unicode="&#x2113;" horiz-adv-x="938" 
d="M895 1210q0 -163 -174 -354q-96 -98 -291 -295q-49 -145 -49 -319q0 -129 35 -129q24 0 116 59q-4 -35 -16 -57q-8 -13 -149.5 -75.5t-161.5 -62.5q-68 0 -68 154q0 133 39 309q-78 -41 -137 -65v57q18 6 156 88q38 170 67 268q49 164 94 250q66 121 174 199
q123 88 240 88q53 0 89 -31.5t36 -83.5zM766 1239q0 31 -18 31q-54 0 -132 -144q-57 -102 -83.5 -190t-77.5 -266q125 121 209 260q102 170 102 309z" />
    <glyph glyph-name="WeierstrassP" unicode="&#x2118;" horiz-adv-x="1364" 
d="M1278 618q0 -217 -164 -423.5t-379 -206.5q-96 0 -151.5 67t-55.5 170q0 66 34.5 118t103.5 52q51 0 82.5 -31.5t31.5 -76.5q0 -8 -2 -21.5t-10 -46.5h-18q-45 0 -92.5 -15.5t-47.5 -62.5q0 -43 27 -73.5t88 -30.5q132 0 208.5 182.5t76.5 341.5q0 133 -33.5 192.5
t-89.5 59.5q-92 0 -234.5 -164.5t-242.5 -333.5q45 -75 114.5 -216.5t69.5 -231.5q0 -113 -71.5 -187.5t-192.5 -74.5q-102 0 -161.5 74t-59.5 176q0 75 38.5 145t83.5 147q-43 56 -81.5 150t-38.5 160q0 171 117.5 271.5t332.5 129.5l8 -55q-101 -13 -171 -88.5t-70 -190.5
q0 -28 14 -70t29 -69q125 210 300.5 403t303.5 193q127 0 215 -110t88 -253zM422 -201q0 62 -53.5 157t-89.5 146q-23 -41 -66 -111.5t-43 -135.5q0 -88 43 -148.5t115 -60.5q39 0 66.5 24.5t27.5 128.5z" />
    <glyph glyph-name="ScriptCapitalR" unicode="&#x211b;" horiz-adv-x="1530" 
d="M1513 1116q0 -158 -190 -285q-154 -102 -338 -139q322 -571 449 -571q26 0 47 16q-27 -57 -131 -94q-88 -33 -164 -33q-60 0 -219 279q-66 117 -195 352q-16 31 -24 31q-62 0 -113 14l-72 -293q-45 -168 -78 -219q-49 -84 -172 -143q-98 -47 -163 -47q-31 0 -50 16
q93 0 181 266q43 131 135 533q73 319 121 387q61 88 254 166q-207 -2 -383 -131q-195 -142 -195 -342q0 -129 53 -181h-4q-4 -2 -6 -2q-43 0 -132 74t-89 117q0 133 158 272q290 256 720 256q600 0 600 -299zM1221 1120q0 113 -131 178q-107 54 -232 54q-61 0 -131 -256
q-16 -64 -72 -326q54 -25 115 -25q156 0 297 109q154 115 154 266z" />
    <glyph glyph-name="GothicCapitalR" unicode="&#x211c;" horiz-adv-x="1489" 
d="M1456 133q-49 -61 -174 -116.5t-203 -57.5q-72 78 -168 341t-139 359h-64q-69 0 -93.5 -31.5t-24.5 -81.5q0 -20 1.5 -59t1.5 -68q0 -90 -45 -151.5t-106 -91.5q23 -26 85.5 -53t90.5 -27q23 0 64 7.5t68 19.5q-19 -76 -138.5 -136.5t-191.5 -60.5q-62 0 -156 67.5
t-158 96.5q52 29 122.5 77t70.5 120v739q0 82 95 149.5t163 96.5q-20 4 -52 8t-56 4q-109 0 -202 -36t-196 -103l-16 26q151 123 293.5 195t345.5 72q211 0 379 -94.5t168 -237.5q0 -127 -93.5 -230.5t-214.5 -132.5l201 -53q21 -98 81 -258t120 -233q24 -29 63 -47.5
t78 -18.5zM911 1057q0 84 -45 145.5t-135 61.5t-114.5 -41t-24.5 -123v-379q29 0 71 15t66 26q86 39 134 117.5t48 177.5z" />
    <glyph glyph-name="Trademark" unicode="&#x2122;" horiz-adv-x="2273" 
d="M2169 535h-393v45q53 0 78.5 19.5t25.5 55.5v605l-301 -725h-98l-310 725v-605q0 -36 25 -55.5t76 -19.5v-45h-287v43q51 0 75.5 18.5t24.5 58.5v629q0 15 -19.5 23t-64.5 8v43h326l250 -592l254 592h338v-41q-50 -2 -73 -17t-23 -43v-602q0 -40 26 -57.5t70 -17.5v-45z
M866 1137h-53v22t-8 47q-10 31 -30.5 51.5t-82.5 20.5h-117v-606q0 -41 21.5 -66.5t103.5 -25.5v-45h-444v45q67 -2 97 15.5t30 74.5v608h-123q-45 0 -70.5 -21.5t-35.5 -50.5q-8 -23 -9.5 -46l-1.5 -23h-53v221h776v-221z" />
    <glyph glyph-name="Mho" unicode="&#x2127;" horiz-adv-x="1532" 
d="M1487 1034h-57q-17 86 -79 114q-45 19 -159 19h-70q301 -355 301 -579q0 -240 -166 -407q-179 -181 -473 -181q-278 0 -463 180q-176 172 -176 408q0 225 306 586h-103q-108 0 -152 -23q-55 -28 -81 -117h-64l19 350h583q-204 -432 -204 -817q0 -506 335 -506
q336 0 336 506q0 383 -209 817h553z" />
    <glyph glyph-name="GothicCapitalZ" unicode="&#x2128;" horiz-adv-x="1649" 
d="M1597 1257q0 -60 -88 -154.5t-147 -94.5h-76q-31 0 -132 -109q-63 -72 -126 -143q183 -31 227 -31q32 0 66 15q40 19 45 46q14 -8 14 -34q0 -68 -92 -124q-82 -50 -155 -50q-39 0 -115 14t-115 14q-26 0 -150 -153q-114 -140 -143 -191q155 -31 311 -62q179 -32 314 -32
q55 0 114 25q73 31 74 77q31 -27 31 -67q0 -104 -82 -199q-85 -98 -188 -98q-121 0 -418 61q-176 36 -490 70q-19 2 -28 2q-139 0 -160 -107q-27 24 -27 60q0 90 102 176q81 69 185 106q61 22 195 160q92 98 184 197q-67 6 -152 6q-125 0 -126 -51q-13 17 -13 35
q0 70 75 127q70 53 142 53q35 0 105.5 -7.5t105.5 -7.5q32 0 254 261q-423 110 -631 110q-156 0 -153 -94q-35 17 -35 67q0 55 84 157t137 102q154 0 450.5 -80t450.5 -80q152 0 154 67q22 -13 22 -39z" />
    <glyph glyph-name="Angstrom" unicode="&#x212b;" horiz-adv-x="1247" 
d="M1196 0h-311l-187 430h-366l-182 -430h-109l451 1032q-76 20 -120 86q-40 58 -40 125q0 94 73.5 164t172.5 70t171 -70t72 -164q0 -124 -112 -192zM713 1245q0 51 -41.5 91t-93.5 40q-54 0 -96 -40t-42 -91q0 -49 42 -89t96 -40q52 0 93.5 40t41.5 89zM655 526l-141 326
l-137 -326h278z" />
    <glyph glyph-name="ScriptCapitalB" unicode="&#x212c;" horiz-adv-x="1651" 
d="M1599 1112q0 -123 -159 -231q-121 -82 -273 -129q336 -47 336 -269q0 -225 -231 -374q-191 -123 -441 -148q-63 -6 -176 -6q-118 0 -296.5 34t-213.5 34q-53 0 -92 -39l-18 10q16 65 63 129q58 74 115 74q10 0 28.5 -5.5t26.5 -5.5q82 0 158 150q57 115 80 223
q16 90 51 272q31 158 92 259q96 157 279 264q-193 0 -338 -88q-154 -92 -221 -267q-33 -84 -33 -159q0 -115 67 -181q-4 -2 -12 -2q-82 0 -147.5 72t-65.5 154q0 235 289 389q244 129 502 129q256 0 391 -37q239 -66 239 -252zM1325 1126q0 91 -123 158q-106 59 -207 59
q-92 0 -159 -239q-39 -137 -64 -322q66 -10 121 -10q168 0 293 92q139 101 139 262zM1196 403q0 195 -129 263q-90 47 -305 45q-41 -226 -135 -336q-78 -92 -297 -209q235 -96 536 -96q146 0 238 94t92 239z" />
    <glyph glyph-name="GothicCapitalC" unicode="&#x212d;" horiz-adv-x="1499" 
d="M1438 1268q-33 -52 -101 -113q-81 -72 -125 -72q-111 0 -270.5 82t-224.5 82q-158 0 -227 -188q-46 -128 -46 -322q0 -229 112 -386q127 -177 347 -177q106 0 238 44q152 50 200 122l17 -23q-16 -59 -162 -148q-103 -62 -205 -124q-33 -29 -65 -57q-46 -37 -74 -37
q-137 0 -316 73q-186 75 -272 173q-162 184 -162 471q0 127 45 285q55 190 136 241q45 28 131 48q101 23 135 38q12 5 133 77q93 56 131 56q44 0 228 -86t286 -86q51 0 100 41z" />
    <glyph glyph-name="ScriptE" unicode="&#x212f;" horiz-adv-x="1010" 
d="M969 797q0 -123 -197 -236q-176 -100 -309 -100q-82 0 -141 24q-21 -61 -21 -172q0 -96 37 -166q47 -90 133 -90q88 0 196.5 84t139.5 170q6 -26 6 -53q0 -108 -149 -203q-136 -86 -250 -86q-144 0 -253.5 99.5t-109.5 242.5q0 277 211 457q199 170 479 170
q228 0 228 -141zM756 791q0 30 -27 53.5t-57 23.5q-80 0 -201 -108.5t-121 -186.5q0 -49 127 -49q82 0 180.5 92.5t98.5 174.5z" />
    <glyph glyph-name="ScriptCapitalE" unicode="&#x2130;" horiz-adv-x="1319" 
d="M1290 408q0 -445 -749 -445q-207 0 -340 66q-176 86 -176 272q0 209 157 344q135 115 357 158q-121 39 -177 82q-83 65 -83 168q0 178 178 272q139 74 336 74q211 0 346 -78q116 -68 116 -131q0 -29 -90 -90.5t-125 -61.5q-2 0 -6 2h-8q39 25 39 70q0 100 -83 163.5
t-185 63.5q-111 0 -180.5 -74.5t-69.5 -185.5q0 -125 82 -191.5t209 -66.5q67 0 116 25l9 -8q-29 -84 -99 -84q-145 0 -237 -31q-111 -37 -195 -135q-90 -105 -90 -205q0 -150 89 -250t239 -100q188 0 322 130t134 318q0 80 -47 119q84 0 147.5 -54.5t63.5 -135.5z" />
    <glyph glyph-name="ScriptCapitalF" unicode="&#x2131;" horiz-adv-x="1481" 
d="M1755 1405q0 -55 -92 -117q-78 -53 -145 -65q-54 -11 -99 -11q-55 0 -166.5 18.5t-167.5 18.5q-110 0 -208 -444h213q233 0 301 41l6 -8q-60 -101 -92 -101h-439q-59 -217 -96 -338q-55 -184 -139 -297q-107 -141 -279 -211q-65 -26 -241 -26q-78 0 -86 57q28 -18 59 -18
q205 0 348 323q90 201 143 502h-30q-88 0 -139 -16q49 61 71 94q37 -6 111 -6q39 157 147.5 281t257.5 180q-119 10 -282 10q-199 0 -328 -88q-150 -101 -150 -291q0 -137 70 -199q-16 -4 -24 -4q-76 0 -154 75t-78 148q0 158 242 299q198 117 387 146q67 10 147 10h77
t32 -2h29q86 0 254.5 -22.5t254.5 -22.5q263 0 265 123q20 -14 20 -39z" />
    <glyph glyph-name="ScriptCapitalM" unicode="&#x2133;" horiz-adv-x="2464" 
d="M2413 109q-21 -70 -136 -125q-100 -50 -184 -50q-2 0 -7 2.5t-7 2.5q-76 112 -101 282q-16 109 -16 303q0 131 51 527q-78 -115 -248 -303q-194 -216 -256 -302q-125 -174 -166 -352q-106 -76 -323 -114q33 75 33 147q0 156 -99 473q-86 274 -174 459q-61 -234 -172 -549
q-147 -416 -225 -485q-129 -115 -281 -115q-41 0 -77 27q149 14 319 296q141 236 252 576q102 313 102 467q0 29 -6 59q99 68 244 107q22 -62 80 -176q88 -176 141 -328q68 -193 158 -541q139 140 278 277q158 164 252 301q121 174 170 352q88 43 357 98l12 -12
q-131 -270 -131 -903q0 -418 121 -418q22 0 39 17z" />
    <glyph glyph-name="ScriptO" unicode="&#x2134;" horiz-adv-x="1128" 
d="M1044 639q0 -258 -206.5 -467t-464.5 -209q-129 0 -208 82t-79 211q0 238 204 440.5t441 202.5q137 0 219 -59q94 -68 94 -201zM813 571q0 244 -125 244q-162 0 -270 -188q-94 -164 -94 -338q0 -86 41 -152q47 -78 129 -78q147 0 241 191q78 156 78 321z" />
    <glyph glyph-name="Aleph" unicode="&#x2135;" horiz-adv-x="1364" 
d="M1303 1069q0 -51 -32 -96t-85 -90q-23 22 -68 66t-76 44q-7 0 -77 -84t-70 -98q0 -27 62.5 -71.5t117.5 -90.5q66 -55 122 -135t56 -180q0 -117 -51 -203t-127 -164l-37 19q9 20 20 50t11 50q0 51 -50 115t-138 136l-523 427q-30 -19 -64 -62t-34 -79q0 -74 34 -129.5
t66 -96.5q41 -53 70 -96t29 -119q0 -102 -46 -148t-151 -46q-35 0 -86 1t-106 5l-9 20q23 11 66 32.5t43 49.5q0 37 -46 137t-46 162q0 113 69.5 222.5t161.5 181.5q-107 81 -175 165.5t-68 165.5q0 83 55.5 168.5t138.5 163.5l45 -26q-12 -23 -18 -51.5t-6 -55.5
q0 -51 87.5 -124t116.5 -97l232 -191q16 -13 52 -40t58 -27q21 0 92.5 88.5t71.5 110.5l-51 60t-51 114q0 82 59.5 144t114.5 106q0 -87 14.5 -122.5t38.5 -58.5q22 -21 60 -44t77 -66q24 -26 37 -52t13 -61z" />
    <glyph glyph-name="Bet" unicode="&#x2136;" horiz-adv-x="1333" 
d="M1288 373l-108 -373h-1139l109 373h909q57 0 55 22l-49 588q-6 74 -141 74h-590q-108 0 -155 39q-52 43 -52 147q0 50 23 176l43 8q0 -57 114 -57h699q116 0 164 -19q79 -33 79 -130q0 -81 -52.5 -147.5t-51.5 -80.5l47 -600q2 -20 68 -20h28z" />
    <glyph glyph-name="Gimel" unicode="&#x2137;" horiz-adv-x="674" 
d="M633 100h-55q-21 133 -37 133q-15 -32 -33 -115q-12 -59 -25 -118h-440l96 332h357q18 0 18 28q0 5 -1 12t-1 9q0 43 -47 596q-6 80 -117 80q-213 0 -213 190q0 32 4 58q1 16 19 116l51 11q13 -62 147 -62h25q110 0 160 -21q80 -32 80 -126q0 -53 -39 -136t-39 -120v-11z
" />
    <glyph glyph-name="Dalet" unicode="&#x2138;" horiz-adv-x="1124" 
d="M1081 1221q0 -140 -108 -162q29 -312 45 -535q18 -250 18 -303q0 -42 -37 -116q-33 -68 -67 -105h-35v1057h-625q-108 0 -157 39q-54 44 -54 147q0 62 21 176l51 11q19 -60 160 -60h549q112 0 161 -20q78 -33 78 -129z" />
    <glyph glyph-name="LeftArrow" unicode="&#xf3cb;" horiz-adv-x="1782" 
d="M1655 434h-1168l218 -262l-119 -123l-459 477l459 480l116 -125l-215 -260h1168v-187z" />
    <glyph glyph-name="LeftArrow" unicode="&#xf076;" horiz-adv-x="1782" 
d="M1655 434h-1168l218 -262l-119 -123l-459 477l459 480l116 -125l-215 -260h1168v-187z" />
    <glyph glyph-name="LeftArrow" unicode="&#x2190;" horiz-adv-x="1782" 
d="M1655 434h-1168l218 -262l-119 -123l-459 477l459 480l116 -125l-215 -260h1168v-187z" />
    <glyph glyph-name="UpArrow" unicode="&#xf3cc;" 
d="M1081 1069l-125 -119l-258 215v-1165h-188v1167l-262 -217l-121 119l477 459z" />
    <glyph glyph-name="UpArrow" unicode="&#xf079;" 
d="M1081 1069l-125 -119l-258 215v-1165h-188v1167l-262 -217l-121 119l477 459z" />
    <glyph glyph-name="UpArrow" unicode="&#x2191;" 
d="M1081 1069l-125 -119l-258 215v-1165h-188v1167l-262 -217l-121 119l477 459z" />
    <glyph glyph-name="RightArrow" unicode="&#xf522;" horiz-adv-x="1782" 
d="M127 621h1168l-215 260l116 125l459 -480l-459 -477l-119 123l218 262h-1168v187z" />
    <glyph glyph-name="RightArrow" unicode="&#xf3ca;" horiz-adv-x="1782" 
d="M127 621h1168l-215 260l116 125l459 -480l-459 -477l-119 123l218 262h-1168v187z" />
    <glyph glyph-name="RightArrow" unicode="&#xf077;" horiz-adv-x="1782" 
d="M127 621h1168l-215 260l116 125l459 -480l-459 -477l-119 123l218 262h-1168v187z" />
    <glyph glyph-name="RightArrow" unicode="&#x2192;" horiz-adv-x="1782" 
d="M127 621h1168l-215 260l116 125l459 -480l-459 -477l-119 123l218 262h-1168v187z" />
    <glyph glyph-name="DownArrow" unicode="&#xf3cd;" 
d="M604 0l-477 459l121 119l262 -217v1167h188v-1165l258 215l125 -119z" />
    <glyph glyph-name="DownArrow" unicode="&#xf07a;" 
d="M604 0l-477 459l121 119l262 -217v1167h188v-1165l258 215l125 -119z" />
    <glyph glyph-name="DownArrow" unicode="&#x2193;" 
d="M604 0l-477 459l121 119l262 -217v1167h188v-1165l258 215l125 -119z" />
    <glyph glyph-name="LeftRightArrow" unicode="&#x2194;" horiz-adv-x="2105" 
d="M1978 528l-456 -479l-119 123l213 262h-1129l218 -262l-119 -123l-459 477l459 480l116 -125l-215 -260h1129l-213 260l119 125z" />
    <glyph glyph-name="UpDownArrow" unicode="&#x2195;" horiz-adv-x="1210" 
d="M1083 459l-477 -459l-479 459l125 116l260 -215v1129l-260 -213l-125 119l479 456l477 -456l-122 -119l-261 213v-1129l261 218z" />
    <glyph glyph-name="UpperLeftArrow" unicode="&#x2196;" horiz-adv-x="1546" 
d="M1419 129l-129 -129l-964 965l-29 -340h-170v667h668v-170l-340 -28z" />
    <glyph glyph-name="UpperRightArrow" unicode="&#x2197;" horiz-adv-x="1546" 
d="M1092 1094l-340 28v170h667v-667h-170l-28 340l-965 -965l-129 129z" />
    <glyph glyph-name="LowerRightArrow" unicode="&#x2198;" horiz-adv-x="1546" 
d="M256 1292l965 -964l28 340h170v-668h-667v170l340 29l-965 964z" />
    <glyph glyph-name="LowerLeftArrow" unicode="&#x2199;" horiz-adv-x="1546" 
d="M1419 1163l-964 -964l340 -29v-170h-668v668h170l29 -340l964 964z" />
    <glyph glyph-name="LeftTeeArrow" unicode="&#x21a4;" horiz-adv-x="1888" 
d="M1761 66h-188v368h-1086l218 -262l-119 -123l-459 477l459 480l116 -125l-215 -260h1086v366h188v-921z" />
    <glyph glyph-name="UpTeeArrow" unicode="&#x21a5;" horiz-adv-x="1210" 
d="M1083 1176l-125 -119l-260 215v-1084h383v-188h-954v188h383v1086l-260 -217l-123 119l477 458z" />
    <glyph glyph-name="RightTeeArrow" unicode="&#x21a6;" horiz-adv-x="1888" 
d="M127 987h188v-366h1086l-215 260l117 125l458 -480l-458 -477l-119 123l217 262h-1086v-368h-188v921z" />
    <glyph glyph-name="DownTeeArrow" unicode="&#x21a7;" horiz-adv-x="1210" 
d="M604 0l-477 459l123 119l260 -218v1086h-383v188h954v-188h-383v-1084l260 216l125 -119z" />
    <glyph glyph-name="ReturnIndicator" unicode="&#x21b5;" horiz-adv-x="1286" 
d="M1159 414h-930l385 -332l-51 -57l-497 426l497 426l51 -58l-385 -327h852v862h78v-940z" />
    <glyph glyph-name="LeftVector" unicode="&#xf09c;" horiz-adv-x="1817" 
d="M1690 434h-1561l547 572l117 -125l-213 -260h1110v-187z" />
    <glyph glyph-name="LeftVector" unicode="&#x21bc;" horiz-adv-x="1817" 
d="M1690 434h-1561l547 572l117 -125l-213 -260h1110v-187z" />
    <glyph glyph-name="DownLeftVector" unicode="&#xf09f;" horiz-adv-x="1817" 
d="M1690 434h-1110l213 -260l-117 -125l-547 572h1561v-187z" />
    <glyph glyph-name="DownLeftVector" unicode="&#x21bd;" horiz-adv-x="1817" 
d="M1690 434h-1110l213 -260l-117 -125l-547 572h1561v-187z" />
    <glyph glyph-name="RightUpVector" unicode="&#xf0a1;" horiz-adv-x="864" 
d="M737 1014l-127 -119l-258 215v-1110h-188v1563z" />
    <glyph glyph-name="RightUpVector" unicode="&#x21be;" horiz-adv-x="864" 
d="M737 1014l-127 -119l-258 215v-1110h-188v1563z" />
    <glyph glyph-name="LeftUpVector" unicode="&#xf0a3;" horiz-adv-x="862" 
d="M698 0h-188v1110l-258 -215l-125 119l571 549v-1563z" />
    <glyph glyph-name="LeftUpVector" unicode="&#x21bf;" horiz-adv-x="862" 
d="M698 0h-188v1110l-258 -215l-125 119l571 549v-1563z" />
    <glyph glyph-name="RightVector" unicode="&#xf09d;" horiz-adv-x="1817" 
d="M129 621h1110l-213 260l117 125l547 -572h-1561v187z" />
    <glyph glyph-name="RightVector" unicode="&#x21c0;" horiz-adv-x="1817" 
d="M129 621h1110l-213 260l117 125l547 -572h-1561v187z" />
    <glyph glyph-name="DownRightVector" unicode="&#xf0a0;" horiz-adv-x="1817" 
d="M129 621h1561l-547 -572l-117 125l213 260h-1110v187z" />
    <glyph glyph-name="DownRightVector" unicode="&#x21c1;" horiz-adv-x="1817" 
d="M129 621h1561l-547 -572l-117 125l213 260h-1110v187z" />
    <glyph glyph-name="RightDownVector" unicode="&#xf0a2;" horiz-adv-x="864" 
d="M164 0v1563h188v-1110l258 215l127 -119z" />
    <glyph glyph-name="RightDownVector" unicode="&#x21c2;" horiz-adv-x="864" 
d="M164 0v1563h188v-1110l258 215l127 -119z" />
    <glyph glyph-name="LeftDownVector" unicode="&#xf0a4;" horiz-adv-x="862" 
d="M698 0l-571 549l125 119l258 -215v1110h188v-1563z" />
    <glyph glyph-name="LeftDownVector" unicode="&#x21c3;" horiz-adv-x="862" 
d="M698 0l-571 549l125 119l258 -215v1110h188v-1563z" />
    <glyph glyph-name="RightArrowLeftArrow" unicode="&#x21c4;" horiz-adv-x="1763" 
d="M1636 764l-356 -373l-117 127l125 152h-1126v188h1126l-125 152l117 127zM1602 170h-1125l123 -152l-117 -127l-356 373l356 373l117 -127l-123 -152h1125v-188z" />
    <glyph glyph-name="UpArrowDownArrow" unicode="&#x21c5;" horiz-adv-x="1475" 
d="M1366 322l-373 -357l-372 357l127 116l151 -123v1127h188v-1127l154 123zM866 1120l-125 -116l-153 122v-1126h-189v1126l-151 -122l-127 116l373 357z" />
    <glyph glyph-name="LeftArrowRightArrow" unicode="&#x21c6;" horiz-adv-x="1763" 
d="M483 1137l117 -127l-125 -152h1127v-188h-1127l125 -152l-117 -127l-356 373zM162 358h1124l-123 152l117 127l356 -373l-356 -373l-117 127l123 152h-1124v188z" />
    <glyph glyph-name="ReverseEquilibrium" unicode="&#x21cb;" horiz-adv-x="1849" 
d="M674 1243l119 -127l-213 -260h1091v-188h-1544zM178 360h1544l-548 -571l-119 123l215 260h-1092v188z" />
    <glyph glyph-name="Equilibrium" unicode="&#x21cc;" horiz-adv-x="1849" 
d="M1722 668h-1544v188h1092l-213 260l119 127zM1671 172h-1091l215 -260l-119 -123l-549 571h1544v-188z" />
    <glyph glyph-name="DoubleLeftArrow" unicode="&#xf07f;" horiz-adv-x="1782" 
d="M1655 170h-959l127 -156l-108 -116l-588 616l588 616l108 -116l-127 -156h959v-188h-1114l-129 -156l129 -156h1114v-188z" />
    <glyph glyph-name="DoubleLeftArrow" unicode="&#x21d0;" horiz-adv-x="1782" 
d="M1655 170h-959l127 -156l-108 -116l-588 616l588 616l108 -116l-127 -156h959v-188h-1114l-129 -156l129 -156h1114v-188z" />
    <glyph glyph-name="DoubleUpArrow" unicode="&#xf081;" horiz-adv-x="1487" 
d="M1360 940l-117 -109l-156 127v-958h-188v1114l-156 129l-155 -129v-1114h-189v958l-155 -127l-117 109l616 588z" />
    <glyph glyph-name="DoubleUpArrow" unicode="&#x21d1;" horiz-adv-x="1487" 
d="M1360 940l-117 -109l-156 127v-958h-188v1114l-156 129l-155 -129v-1114h-189v958l-155 -127l-117 109l616 588z" />
    <glyph glyph-name="DoubleRightArrow" unicode="&#xf523;" horiz-adv-x="1782" 
d="M127 0zM126.992 170h958.941l-126.992 -156l107.993 -116l587.965 616l-587.965 616l-107.993 -116l126.992 -156h-958.941v-188h1113.93l128.992 -156l-128.992 -156h-1113.93v-188z" />
    <glyph glyph-name="DoubleRightArrow" unicode="&#xf080;" horiz-adv-x="1782" 
d="M127 0zM126.992 170h958.941l-126.992 -156l107.993 -116l587.965 616l-587.965 616l-107.993 -116l126.992 -156h-958.941v-188h1113.93l128.992 -156l-128.992 -156h-1113.93v-188z" />
    <glyph glyph-name="DoubleRightArrow" unicode="&#x21d2;" horiz-adv-x="1782" 
d="M127 0zM126.992 170h958.941l-126.992 -156l107.993 -116l587.965 616l-587.965 616l-107.993 -116l126.992 -156h-958.941v-188h1113.93l128.992 -156l-128.992 -156h-1113.93v-188z" />
    <glyph glyph-name="DoubleDownArrow" unicode="&#xf082;" horiz-adv-x="1487" 
d="M127 0zM1360 587.964l-117 108.993l-156 -126.992v957.941h-188v-1113.93l-156 -128.992l-155 128.992v1113.93h-189v-957.941l-155 126.992l-117 -108.993l616 -587.964z" />
    <glyph glyph-name="DoubleDownArrow" unicode="&#x21d3;" horiz-adv-x="1487" 
d="M127 0zM1360 587.964l-117 108.993l-156 -126.992v957.941h-188v-1113.93l-156 -128.992l-155 128.992v1113.93h-189v-957.941l-155 126.992l-117 -108.993l616 -587.964z" />
    <glyph glyph-name="DoubleLeftRightArrow" unicode="&#x21d4;" horiz-adv-x="2386" 
d="M2259 514l-586 -616l-110 116l129 156h-996l127 -156l-108 -116l-588 616l588 616l108 -116l-127 -156h996l-129 156l110 116zM1976 514l-129 156h-1306l-129 -156l129 -156h1306z" />
    <glyph glyph-name="DoubleUpDownArrow" unicode="&#x21d5;" horiz-adv-x="1487" 
d="M1360 340l-617 -588l-616 588l117 109l155 -127v995l-155 -129l-117 110l616 586l617 -586l-117 -110l-156 129v-995l156 127zM899 166v1307l-156 129l-155 -129v-1307l155 -129z" />
    <glyph glyph-name="LeftArrowBar" unicode="&#x21e4;" horiz-adv-x="1970" 
d="M127 987h188v-921h-188v921zM774 1006l119 -125l-215 -260h1165v-187h-1167l217 -262l-119 -123l-459 479z" />
    <glyph glyph-name="RightArrowBar" unicode="&#x21e5;" horiz-adv-x="1970" 
d="M1843 66h-188v921h188v-921zM1655 528l-459 -479l-119 123l217 262h-1167v187h1165l-215 260l119 125z" />
    <glyph glyph-name="DownArrowUpArrow" unicode="&#x21f5;" horiz-adv-x="1475" 
d="M246 438l153 -123v1127h189v-1127l151 123l127 -116l-372 -357l-373 357zM993 1477l373 -357l-127 -116l-152 122v-1126h-188v1126l-154 -122l-124 116z" />
    <glyph glyph-name="ForAll" unicode="&#x2200;" horiz-adv-x="1284" 
d="M1227 1356l-576 -1385h-43l-551 1385h127l222 -563h296l222 563h303zM662 690h-220l111 -274z" />
    <glyph glyph-name="PartialD" unicode="&#x2202;" horiz-adv-x="1143" 
d="M1092 872q0 -399 -190.5 -652t-479.5 -253q-184 0 -282.5 91.5t-98.5 244.5q0 227 177.5 420.5t443.5 193.5q69 0 123.5 -22.5t88.5 -50.5q5 35 9 82t4 110q0 141 -34 230.5t-112 89.5q-86 0 -137 -44t-51 -95q0 -39 14.5 -55.5t34.5 -35.5q-30 -39 -59 -60.5t-68 -21.5
q-55 0 -95 26t-40 87q0 107 129 183.5t270 76.5q182 0 267.5 -157.5t85.5 -387.5zM776 653q0 74 -31.5 128.5t-97.5 54.5q-157 0 -248.5 -203.5t-91.5 -392.5q0 -82 32 -152t97 -70q155 0 247.5 202t92.5 433z" />
    <glyph glyph-name="Exists" unicode="&#x2203;" horiz-adv-x="1284" 
d="M1194 0h-1104v94h795q2 0 14 7.5t12 50.5v510h-647v100h647v461q0 18 -10 28.5t-41 10.5h-749v94h1083v-1356z" />
    <glyph glyph-name="NotExists" unicode="&#x2204;" horiz-adv-x="1284" 
d="M1194 0h-647l-76 -276h-190l77 276h-268v94h295l158 568h-279v100h307l140 500h-600v94h626l76 268h184l-73 -268h270v-1356zM911 760v463q0 22 -16 30l-137 -493h153zM911 152v510h-180l-158 -568h312q26 0 26 58z" />
    <glyph glyph-name="EmptySet" unicode="&#x2205;" horiz-adv-x="1565" 
d="M1490 674q0 -305 -203 -503t-508 -198q-22 0 -45 1.5t-46 3.5l-70 -250h-190l83 292q-198 74 -318 250.5t-120 411.5q0 298 195.5 501t523.5 203q27 0 53.5 -2t51.5 -5l70 247h184l-81 -290q192 -78 306 -261.5t114 -400.5zM878 1313q-19 4 -42 6t-46 2
q-181 0 -297.5 -149.5t-116.5 -471.5q0 -204 41 -352.5t122 -226.5zM1187 686q0 159 -37.5 300t-112.5 234l-331 -1178q11 -2 23.5 -2.5t23.5 -0.5q211 0 322.5 164.5t111.5 482.5z" />
    <glyph glyph-name="Laplacian" unicode="&#x2206;" horiz-adv-x="2114" 
d="M59 -301l949 1804h98l946 -1804h-1993zM1745 -115l-451 856l-450 -856h901zM635 -115l555 1057l-133 252l-688 -1309h266z" />
    <glyph glyph-name="Del" unicode="&#x2207;" horiz-adv-x="1473" 
d="M1409 1386l-614 -1386h-95l-641 1386h1350zM1116 1126h-633l318 -684z" />
    <glyph glyph-name="Element" unicode="&#x2208;" horiz-adv-x="1427" 
d="M1300 -90h-628q-230 0 -387.5 164t-157.5 383q0 217 157.5 384t387.5 167h628v-185h-636q-121 0 -213.5 -76.5t-124.5 -191.5h940v-184h-944q30 -119 129.5 -196t212.5 -77h636v-188z" />
    <glyph glyph-name="NotElement" unicode="&#x2209;" horiz-adv-x="1427" 
d="M1300 -90h-620l-64 -238h-186l71 266q-163 54 -268.5 198.5t-105.5 320.5q0 216 158 383.5t387 167.5h117l63 235h184l-63 -235h327v-185h-377l-71 -268h414v-184h-463l-73 -273h570v-188zM739 823h-75q-120 0 -213 -77t-125 -191h341zM618 371h-296q23 -89 86 -156
t142 -96z" />
    <glyph glyph-name="ReverseElement" unicode="&#x220b;" horiz-adv-x="1427" 
d="M1300 457q0 -224 -157 -384q-159 -163 -387 -163h-629v188h637q114 0 213 77.5t129 195.5h-944v184h940q-32 117 -122 191q-94 77 -216 77h-637v185h629q228 0 388 -166q156 -162 156 -385z" />
    <glyph glyph-name="NotReverseElement" unicode="&#x220c;" horiz-adv-x="1427" 
d="M1300 457q0 -224 -157 -384q-159 -163 -387 -163h-113l-63 -238h-187l64 238h-330v188h381l74 273h-420v184h469l74 268h-578v185h627l63 235h184l-71 -264q165 -57 267.5 -201.5t102.5 -320.5zM1102 555q-50 184 -219 248l-66 -248h285zM1106 371h-338l-74 -273h70
q114 0 213 77.5t129 195.5z" />
    <glyph glyph-name="SuchThat" unicode="&#x220d;" horiz-adv-x="1026" 
d="M899 535q0 -231 -140.5 -388t-467.5 -157q-39 0 -101.5 11l-62.5 11l23 88l34.5 -5t61.5 -5q155 0 249 84t121 232l-407 20l18 119l402 18q-9 130 -64 206.5t-182 76.5q-80 0 -127 -8.5t-109 -16.5l15 103q43 12 102.5 33.5t169.5 21.5q221 0 343 -115.5t122 -328.5z" />
    <glyph glyph-name="Product" unicode="&#x220f;" horiz-adv-x="1948" 
d="M1780 -299h-576v43q148 0 148 80v1530q0 43 -60 43h-643q-57 0 -57 -39v-1534q0 -80 151 -80v-43h-575v43q143 0 143 78v1564q0 74 -143 74v43h1612v-43q-148 0 -148 -78v-1564q0 -74 148 -74v-43z" />
    <glyph glyph-name="Coproduct" unicode="&#x2210;" horiz-adv-x="1501" 
d="M1456 0h-1413v45q74 0 112 17.5t38 84.5v1041q0 88 -32 108.5t-118 20.5v39h586v-39q-65 0 -109.5 -18.5t-44.5 -112.5v-1004q0 -26 10.5 -49.5t57.5 -23.5h409q49 0 60.5 25.5t11.5 51.5v1000q0 90 -42.5 110.5t-109.5 20.5v39h584v-39q-86 0 -117.5 -24.5t-31.5 -100.5
v-1040q0 -74 32.5 -90.5t116.5 -16.5v-45z" />
    <glyph glyph-name="Sum" unicode="&#x2211;" horiz-adv-x="1724" 
d="M1556 303l-26 -602h-1442l725 883l-661 919h1316l17 -481h-45q-64 367 -283 367h-627l502 -723l-563 -717h801q185 0 243 354h43z" />
    <glyph glyph-name="MinusPlus" unicode="&#x2213;" horiz-adv-x="1399" 
d="M1272 928h-1145v188h1145v-188zM1272 256h-473v-371h-197v371h-475v197h475v395h197v-395h473v-197z" />
    <glyph glyph-name="Backslash" unicode="&#x2216;" horiz-adv-x="733" 
d="M733 -360h-170l-563 1779h170z" />
    <glyph glyph-name="SmallCircle" unicode="&#x2218;" horiz-adv-x="868" 
d="M782 616q0 -145 -101.5 -246.5t-246.5 -101.5q-146 0 -247 101.5t-101 246.5t101.5 247t246.5 102t246.5 -102t101.5 -247zM621 616q0 77 -55 132t-132 55q-78 0 -132 -54.5t-54 -132.5t54 -132t132 -54q77 0 132 54t55 132z" />
    <glyph glyph-name="Sqrt" unicode="&#x221a;" horiz-adv-x="1751" 
d="M1675 580l-676 -2315l-620 1299l-217 -82l-39 65l469 248l401 -856l477 1641h205z" />
    <glyph glyph-name="Proportional" unicode="&#x221d;" horiz-adv-x="1464" 
d="M1391 784l-101 -143q-11 28 -58 57t-97 29q-52 0 -133 -72.5t-134 -162.5q46 -135 117.5 -241t149.5 -106q60 0 104 18t72 52l39 -45q-46 -67 -104 -106t-118 -39q-125 0 -216.5 76t-137.5 210h-2q-54 -112 -145.5 -198t-220.5 -86q-138 0 -219 112.5t-81 274.5
q0 176 98 321.5t255 145.5q123 0 216 -75t144 -220q69 120 170.5 205.5t192.5 85.5q64 0 114.5 -25.5t94.5 -67.5zM739 420q-62 170 -136 257t-187 87q-86 0 -124 -84t-38 -166q0 -103 62.5 -200t138.5 -97q71 0 160.5 69.5t123.5 133.5z" />
    <glyph glyph-name="Infinity" unicode="&#x221e;" horiz-adv-x="1829" 
d="M1722 489q0 -168 -116.5 -295.5t-290.5 -127.5q-127 0 -232 77.5t-194 188.5q-82 -98 -207 -181t-227 -83q-154 0 -251.5 97t-97.5 253q0 170 120.5 296t291.5 126q125 0 243 -89t185 -173q60 75 192 166.5t240 91.5q149 0 246.5 -92.5t97.5 -254.5zM821 420
q-63 108 -165.5 224t-180.5 116q-88 0 -133 -83t-45 -169q0 -115 63.5 -197t153.5 -82q72 0 168 68t139 123zM1536 401q0 112 -60 196.5t-159 84.5q-84 0 -170 -63.5t-139 -122.5q81 -121 182.5 -232.5t173.5 -111.5q77 0 124.5 75t47.5 174z" />
    <glyph glyph-name="RightAngle" unicode="&#x221f;" horiz-adv-x="1034" 
d="M907 0h-780v1122h168v-624h326v-326h286v-172zM504 172v209h-209v-209h209z" />
    <glyph glyph-name="Angle" unicode="&#x2220;" horiz-adv-x="1049" 
d="M922 0h-795l301 1122h176l-254 -950h572v-172z" />
    <glyph glyph-name="MeasuredAngle" unicode="&#x2221;" horiz-adv-x="1049" 
d="M922 0h-795l301 1120h176l-153 -577q117 -44 195.5 -144.5t90.5 -228.5h185v-170zM618 172q-6 78 -62 152q-59 77 -138 104l-68 -256h268z" />
    <glyph glyph-name="SphericalAngle" unicode="&#x2222;" horiz-adv-x="1137" 
d="M1010 -78l-883 531l883 532v-201l-217 -129q51 -96 51 -204q0 -103 -49 -201l215 -127v-201zM733 446q0 93 -35 152l-241 -145l243 -146q33 74 33 139z" />
    <glyph glyph-name="Divides" unicode="&#x2502;" horiz-adv-x="178" 
d="M178 0h-178v410h178v-410z" />
    <glyph glyph-name="Divides" unicode="&#x2223;" horiz-adv-x="178" 
d="M178 0h-178v410h178v-410z" />
    <glyph glyph-name="DoubleVerticalBar" unicode="&#x2225;" horiz-adv-x="1057" 
d="M881 0h-205v946h205v-946zM381 0h-205v946h205v-946z" />
    <glyph glyph-name="NotDoubleVerticalBar" unicode="&#x2226;" horiz-adv-x="1225" 
d="M1225 946l-271 -270v-676h-196v479l-291 -291v-188h-467l270 270v676h197v-479l291 291v188h467z" />
    <glyph glyph-name="And" unicode="&#xf3db;" horiz-adv-x="1370" 
d="M82 0zM1288 0l-553 1375.92h-98l-555 -1375.92h205l399 1031.94l397 -1031.94h205z" />
    <glyph glyph-name="And" unicode="&#x2227;" horiz-adv-x="1370" 
d="M82 0zM1288 0l-553 1375.92h-98l-555 -1375.92h205l399 1031.94l397 -1031.94h205z" />
    <glyph glyph-name="Or" unicode="&#x2228;" horiz-adv-x="1370" 
d="M1288 1356l-553 -1376h-98l-555 1376h205l399 -1032l397 1032h205z" />
    <glyph glyph-name="Integral" unicode="&#x222b;" horiz-adv-x="881" 
d="M1432 1914q0 -39 -16.5 -73.5t-61.5 -34.5q-56 0 -118.5 48t-62.5 109q0 13 9.5 29t15.5 29q-14 14 -30.5 19t-34.5 5q-96 0 -148 -149t-70 -338q-18 -191 -20 -303.5t-2 -165.5q0 -169 -34 -625t-134 -665q-53 -111 -134 -193t-216 -82q-120 0 -195.5 58t-75.5 143
q0 39 17.5 75t64.5 36q56 0 111 -44.5t55 -103.5q0 -14 -7 -37.5t-13 -38.5q14 -14 29.5 -19t35.5 -5q86 0 132.5 111t64.5 282q18 174 24 408.5t13 457.5q8 252 29.5 464t78.5 403q52 173 156 283t258 110q103 0 191 -49t88 -144z" />
    <glyph glyph-name="ContourIntegral" unicode="&#x222e;" horiz-adv-x="881" 
d="M1432 1914q0 -39 -16.5 -73.5t-61.5 -34.5q-55 0 -118 48t-63 109q0 12 10.5 28.5t14.5 29.5q-13 13 -30 18.5t-35 5.5q-94 0 -147 -150t-71 -337q-7 -95 -12.5 -171t-7.5 -133q155 -46 256 -177.5t101 -299.5q0 -185 -118.5 -323t-294.5 -167q-11 -152 -43 -280.5
t-71 -207.5q-52 -111 -133.5 -193t-216.5 -82q-118 0 -194.5 58t-76.5 143q0 37 18 74t64 37q56 0 111 -45t55 -103q0 -14 -7 -38.5t-13 -37.5q14 -14 30 -19t35 -5q86 0 133.5 111t63.5 282q8 68 13 149.5t8 169.5q-154 44 -255.5 175.5t-101.5 301.5q0 179 114.5 315.5
t283.5 171.5q13 134 32.5 238.5t50.5 211.5q52 172 156.5 282.5t257.5 110.5q103 0 191 -49.5t88 -143.5zM646 1155q-122 -35 -203 -140t-81 -238q0 -127 72.5 -227.5t184.5 -141.5q4 108 7 220t5 219q3 80 7 157t8 151zM1148 777q0 125 -71.5 225.5t-183.5 142.5v-31.5
v-24.5q0 -92 -9 -287t-32 -406q128 31 212 137t84 244z" />
    <glyph glyph-name="DoubleContourIntegral" unicode="&#x222f;" horiz-adv-x="1595" 
d="M2144 1914q0 -39 -16.5 -73.5t-61.5 -34.5q-55 0 -118 48t-63 109q0 12 10.5 28.5t14.5 29.5q-13 13 -30 18.5t-35 5.5q-94 0 -147 -150t-71 -337q-8 -95 -13 -170.5t-7 -131.5q158 -44 261 -177t103 -302q0 -187 -120.5 -325.5t-299.5 -165.5q-19 -148 -47 -278
t-67 -209q-52 -111 -133.5 -193t-216.5 -82q-118 0 -194.5 58t-76.5 143q0 37 18 74t64 37q56 0 111 -45t55 -103q0 -14 -7 -38.5t-13 -37.5q14 -14 30 -19t35 -5q86 0 133.5 111t63.5 282q7 64 12 140.5t8 158.5h-488q-16 -146 -45.5 -274.5t-67.5 -206.5
q-51 -111 -133 -193t-217 -82q-117 0 -194 58t-77 143q0 36 18.5 73.5t63.5 37.5q56 0 111 -45.5t55 -102.5q0 -14 -7 -39t-13 -37q14 -14 30.5 -19t34.5 -5q86 0 134 111t63 282q8 67 14.5 149t6.5 170q-153 43 -255 175t-102 302q0 181 113 316.5t285 170.5
q12 118 32.5 230.5t50.5 219.5q52 171 157.5 282t256.5 111q103 0 191 -50t88 -143q0 -39 -16.5 -73.5t-61.5 -34.5q-54 0 -117.5 48t-63.5 109q0 10 11 27.5t14 30.5q-12 12 -29.5 18t-35.5 6q-93 0 -146.5 -150.5t-71.5 -336.5q-6 -88 -11.5 -159t-7.5 -125h473
q12 117 32.5 226.5t49.5 213.5q52 172 156.5 282.5t257.5 110.5q103 0 191 -49.5t88 -143.5zM646 1155q-121 -35 -202.5 -140.5t-81.5 -237.5q0 -127 73 -228t184 -141q4 106 8 219t4 220q3 79 7.5 156.5t7.5 151.5zM1360 1170h-467v-47v-34q0 -93 -11.5 -292.5
t-30.5 -412.5h479q4 113 7 231.5t6 231.5q3 85 7.5 165.5t9.5 157.5zM1867 777q0 126 -73.5 227.5t-188.5 142.5v-32v-26q0 -92 -9 -288t-32 -407q130 30 216.5 136.5t86.5 246.5z" />
    <glyph glyph-name="ClockwiseContourIntegral" unicode="&#x2232;" horiz-adv-x="881" 
d="M1432 1914q0 -39 -16.5 -73.5t-61.5 -34.5q-55 0 -118 48t-63 109q0 12 10.5 28.5t14.5 29.5q-13 13 -30 18.5t-35 5.5q-94 0 -147 -150t-71 -337q-7 -96 -12.5 -172t-7.5 -132q155 -47 256 -179t101 -298q0 -185 -118.5 -323t-294.5 -167q-13 -151 -44 -280t-70 -208
q-52 -111 -133.5 -193t-216.5 -82q-118 0 -194.5 58t-76.5 143q0 37 18 74t64 37q56 0 111 -45t55 -103q0 -14 -7 -38.5t-13 -37.5q14 -14 30 -19t35 -5q86 0 133.5 111t63.5 282q8 68 13 149.5t8 169.5q-140 41 -238.5 156t-115.5 267l-132 -119l-49 47l183 199
q23 152 133 267t260 147q12 120 32 231.5t51 218.5q52 172 156.5 282.5t257.5 110.5q103 0 191 -49.5t88 -143.5zM646 1155q-106 -32 -182 -116t-96 -193l177 -195l-49 -47l-130 117q15 -109 84.5 -193t168.5 -120q4 108 7 220t5 219q3 80 7 157t8 151zM1148 777
q0 124 -71.5 224.5t-183.5 143.5v-31.5v-24.5q0 -92 -9 -287t-32 -406q128 31 212 137t84 244z" />
    <glyph glyph-name="CounterClockwiseContourIntegral" unicode="&#x2233;" horiz-adv-x="881" 
d="M1432 1914q0 -39 -16.5 -73.5t-61.5 -34.5q-55 0 -118 48t-63 109q0 12 10.5 28.5t14.5 29.5q-13 13 -30 18.5t-35 5.5q-94 0 -147 -150t-71 -337q-7 -96 -12.5 -172t-7.5 -132q141 -41 239 -154.5t114 -259.5l173 -189l-49 -47l-124 110q-19 -163 -133 -282t-276 -145
q-10 -151 -42.5 -280t-71.5 -208q-52 -111 -133.5 -193t-216.5 -82q-118 0 -194.5 58t-76.5 143q0 37 18 74t64 37q56 0 111 -45t55 -103q0 -14 -7 -38.5t-13 -37.5q14 -14 30 -19t35 -5q86 0 133.5 111t63.5 282q8 68 13 149.5t8 169.5q-153 44 -255 175.5t-102 301.5
q0 178 114.5 315t283.5 172q12 120 32 232t51 218q52 172 156.5 282.5t257.5 110.5q103 0 191 -49.5t88 -143.5zM646 1154q-121 -35 -202.5 -140t-81.5 -237q0 -127 73 -227.5t184 -141.5q4 108 7 220t5 219q3 80 7 157t8 150zM1145 729l-139 -125l-50 47l185 198
q-16 100 -84 180t-164 116v-31.5v-24.5q0 -92 -9 -287t-32 -406q117 28 198.5 119.5t94.5 213.5z" />
    <glyph glyph-name="Therefore" unicode="&#x2234;" horiz-adv-x="1288" 
d="M791 868q0 -62 -44 -105.5t-106 -43.5q-63 0 -106 43t-43 106q0 62 43 106t106 44q61 0 105.5 -44t44.5 -106zM1157 131q0 -63 -44 -106t-105 -43q-63 0 -106.5 43t-43.5 106q0 62 43.5 106t106.5 44q61 0 105 -44t44 -106zM424 131q0 -63 -44 -106t-106 -43
q-63 0 -106 43t-43 106q0 62 43.5 106t105.5 44t106 -44t44 -106z" />
    <glyph glyph-name="Because" unicode="&#x2235;" horiz-adv-x="1288" 
d="M1157 911q0 -62 -44 -105.5t-105 -43.5q-63 0 -106.5 43t-43.5 106q0 62 43.5 106t106.5 44q61 0 105 -44t44 -106zM424 911q0 -62 -44 -105.5t-106 -43.5q-63 0 -106 43t-43 106q0 62 43.5 106t105.5 44t106 -44t44 -106zM791 139q0 -62 -44 -105.5t-106 -43.5
q-63 0 -106 43t-43 106q0 62 43 106t106 44q61 0 105.5 -44t44.5 -106z" />
    <glyph glyph-name="Proportion" unicode="&#x2237;" horiz-adv-x="1288" 
d="M1161 877q0 -63 -43.5 -106.5t-105.5 -43.5q-63 0 -106.5 43.5t-43.5 106.5q0 61 43.5 105t106.5 44q61 0 105 -44t44 -105zM418 877q0 -63 -44 -106.5t-106 -43.5q-63 0 -106 43.5t-43 106.5q0 61 43.5 105t105.5 44t106 -44t44 -105zM1161 129q0 -63 -43.5 -106
t-105.5 -43q-63 0 -106.5 43t-43.5 106q0 62 43.5 106t106.5 44q61 0 105 -44.5t44 -105.5zM418 129q0 -63 -44 -106t-106 -43q-63 0 -106 43t-43 106q0 62 43.5 106t105.5 44t106 -44.5t44 -105.5z" />
    <glyph glyph-name="VerticalTilde" unicode="&#x2240;" horiz-adv-x="625" 
d="M526 33l-26 -56q-160 5 -266 100q-111 99 -111 257q0 107 56 207q51 77 103 154q56 85 56 155q0 78 -50.5 154t-123.5 110l22 62q145 -19 241 -121q97 -105 97 -250q0 -123 -109.5 -280.5t-109.5 -237.5q0 -88 69 -162q64 -70 152 -92z" />
    <glyph glyph-name="NotTilde" unicode="&#x2241;" horiz-adv-x="1366" 
d="M1239 702q-9 -113 -44 -193q-85 -192 -286 -192q-73 0 -145 31l-80 -301h-186l110 408q-107 86 -176 86q-170 0 -246 -185l-59 25q22 102 64 174q101 172 280 172q91 0 195 -61l84 317h186l-117 -432q74 -47 131 -47q171 0 232 225z" />
    <glyph glyph-name="EqualTilde" unicode="&#x2242;" horiz-adv-x="1382" 
d="M1255 588h-1128v196h1128v-196zM1249 401q-9 -113 -45 -194q-86 -193 -289 -193q-102 0 -194 58q-71 54 -141 108q-77 58 -142 58q-99 0 -173 -78q-46 -49 -70 -109l-60 27q22 101 63 174q99 172 281 172q117 0 262.5 -111.5t216.5 -111.5q104 0 170 91q44 59 60 134z
" />
    <glyph glyph-name="TildeEqual" unicode="&#x2243;" horiz-adv-x="1382" 
d="M1249 877q-9 -114 -45 -195q-86 -193 -289 -193q-102 0 -194 58q-71 54 -141 108q-77 58 -142 58q-99 0 -173 -78q-46 -49 -70 -109l-60 27q22 102 63 174q99 172 281 172q117 0 262.5 -111.5t216.5 -111.5q104 0 170 91q44 59 60 134zM1255 137h-1128v197h1128v-197z
" />
    <glyph glyph-name="NotTildeEqual" unicode="&#x2244;" horiz-adv-x="1382" 
d="M1255 137h-501l-74 -272h-186l73 272h-440v197h491l66 239q-60 47 -120 93q-67 47 -126 47q-169 0 -243 -187l-60 27q22 102 63 174q99 172 281 172q115 0 262 -111l95 353h186l-123 -455q34 -10 59 -10q104 0 170 91q44 59 60 134l61 -24q-9 -114 -45 -195
q-86 -193 -289 -193q-34 0 -65 7l-45 -162h450v-197z" />
    </font>
</defs>
</svg>
